<!-- Generator: Adobe Illustrator 24.3.0, SVG Export Plug-In  -->
<svg version="1.1" xmlns="http://www.w3.org/2000/svg" xmlns:xlink="http://www.w3.org/1999/xlink" x="0px" y="0px" width="1000px"
	 height="1000px" viewBox="0 0 1000 1000" style="overflow:visible;enable-background:new 0 0 1000 1000;" xml:space="preserve">
<style type="text/css">
	.st0{fill:url(#SVGID_1_);}
	.st1{opacity:0.3;fill:url(#SVGID_2_);}
	.st2{fill:url(#SVGID_3_);}
	.st3{opacity:0.3;fill:url(#SVGID_4_);}
</style>
<defs>
</defs>
<radialGradient id="SVGID_1_" cx="500" cy="500" r="500" gradientUnits="userSpaceOnUse">
	<stop  offset="0" style="stop-color:#9D1A19"/>
	<stop  offset="1" style="stop-color:#660E13"/>
</radialGradient>
<rect class="st0" width="1000" height="1000"/>
<linearGradient id="SVGID_2_" gradientUnits="userSpaceOnUse" x1="-7.1402" y1="302.9122" x2="1830.5111" y2="976.6736">
	<stop  offset="0" style="stop-color:#8B5A1D"/>
	<stop  offset="0.2552" style="stop-color:#FAE7A4"/>
	<stop  offset="0.3187" style="stop-color:#FAE8A8"/>
	<stop  offset="0.3876" style="stop-color:#FBECB5"/>
	<stop  offset="0.4592" style="stop-color:#FCF1CB"/>
	<stop  offset="0.532" style="stop-color:#FEF9E9"/>
	<stop  offset="0.5753" style="stop-color:#FFFFFF"/>
	<stop  offset="0.6321" style="stop-color:#E0CFB3"/>
	<stop  offset="0.6788" style="stop-color:#CAAD7B"/>
	<stop  offset="0.7135" style="stop-color:#BC9759"/>
	<stop  offset="0.7322" style="stop-color:#B78F4C"/>
	<stop  offset="0.7799" style="stop-color:#B8904E"/>
	<stop  offset="0.8002" style="stop-color:#BC9655"/>
	<stop  offset="0.8152" style="stop-color:#C29F62"/>
	<stop  offset="0.8277" style="stop-color:#CBAC73"/>
	<stop  offset="0.8385" style="stop-color:#D7BD8A"/>
	<stop  offset="0.8483" style="stop-color:#E5D1A7"/>
	<stop  offset="0.857" style="stop-color:#F6EAC8"/>
	<stop  offset="0.8602" style="stop-color:#FDF4D6"/>
	<stop  offset="0.8632" style="stop-color:#F2E7C9"/>
	<stop  offset="0.8739" style="stop-color:#D0BF9E"/>
	<stop  offset="0.8856" style="stop-color:#B29B79"/>
	<stop  offset="0.898" style="stop-color:#997C59"/>
	<stop  offset="0.9114" style="stop-color:#84643F"/>
	<stop  offset="0.9261" style="stop-color:#74512C"/>
	<stop  offset="0.943" style="stop-color:#69431E"/>
	<stop  offset="0.9637" style="stop-color:#623B15"/>
	<stop  offset="1" style="stop-color:#603913"/>
</linearGradient>
<path class="st1" d="M826.3,399c49.9,10.8,105.3,22.7,173.7,52.7v55.5c-80.4-38.6-142-53.9-197-67.5c-67-16.6-119.9-29.8-183.8-79.8
	c-28.5-22.3-56.8-41.1-86.6-57.5c-143.6-79-268.9-74.7-379.4-71c-54.2,1.8-104.6,3.5-153.1-4v-42.6c55.2,8.6,111,6.3,168.5,4
	c114.5-4.7,232.8-9.5,370.7,68.1c28.4,16,55.6,34.5,83.2,56.5C693.8,370.4,755.2,383.6,826.3,399z M594.5,391.3
	c-26.8-21-53.3-38.6-81.2-53.9c-134-73.7-248.3-69.8-358.8-66.1c-52.7,1.8-103.9,3.5-154.5-3.6v42.6c44.2,6.2,90.2,5,139.4,3.7
	c106.6-2.8,227.5-6,366.9,68.7c29.2,15.7,56.9,33.6,84.6,54.9c64.1,49.1,115.7,63.7,181,82.2c57.1,16.2,121.9,34.5,210.5,79.7
	c6,3,11.8,6,17.6,9v-56.7c-85.4-43.2-149.7-59.2-206.7-73.3C724.5,461.4,665.1,446.6,594.5,391.3z M761,558.3
	c-66.7-18.9-124.2-35.2-194.4-88.9c-26-19.9-51.9-36.7-79.2-51.4c-130-69.7-240.3-66.8-346.9-64C92.6,355.2,46,356.4,0,350.6v42.6
	c40,4.9,81.6,4.2,125.8,3.3c102.7-1.9,219.1-4.1,354.2,66.5c28.7,15,55.7,32.1,82.7,52.3c64.7,48.5,115.3,64.7,179.3,85.3
	c53.3,17.1,113.7,36.6,197.1,78.4c22.4,11.1,42.3,21.6,60.8,31.9v-57.1c-11.3-6.2-23.1-12.4-35.7-18.7
	C879.1,591.7,816.4,573.9,761,558.3z M650.2,235.3c-28.2-23-56.1-42.3-85.1-59c-141.7-81.6-264.1-75.8-382.5-70.2
	c-62.3,2.9-122.8,5.8-182.6-4.4v42.6c52.9,9.1,107.7,6.9,166.9,4.5c114.4-4.7,244.2-10,391.9,73.2c30.3,17.1,59.3,36.7,88.5,60.1
	c64.1,51.2,118.5,63,187.5,77.8c48,10.4,100.9,21.8,165.2,48.3v-53.3c-52.9-18.8-98.4-27.3-140.3-35.1
	C786.1,306.1,722.6,294.2,650.2,235.3z M729.9,638.7c-64.9-20.9-121-38.9-191.1-91.3c-25.2-18.9-50.5-34.9-77.3-48.8
	c-126.1-65.9-232.3-63.9-335-61.9c-43.1,0.8-85.2,1.6-126.6-3.1v42.6c35.8,3.9,73,3.5,112.3,3.1c98.8-1,210.7-2.2,341.5,64.2
	c28.1,14.3,54.6,30.5,80.8,49.7c66.3,48.4,114,65.7,180.1,89.7c49,17.8,104.5,37.9,181.3,75.8c26.3,12.8,57.6,28.5,90.1,47.3
	c4.7,2.7,9.3,5.3,13.9,7.8V757c-23.3-13.7-48.6-27.3-78.7-42.3C840.6,674.3,781.8,655.4,729.9,638.7z M733.8,1.4
	c-0.5-0.5-1.1-0.9-1.6-1.4h-64.8c21.7,14.6,43.2,30.9,64.3,48.8c65.6,55.1,125.3,63.1,200.8,73.2c21.5,2.9,43.9,5.9,67.5,10.1V87.2
	c-13.3-1.7-26.2-3.1-38.8-4.5C883.2,74.1,809.6,66,733.8,1.4z M954.6,0H800.3c51.8,30.5,103.4,36.1,165.3,42.9
	c11.2,1.2,22.7,2.5,34.4,3.9V4.3c-1.6-0.1-3.1-0.3-4.7-0.4C981.6,2.7,968,1.5,954.6,0z M785.8,217.5
	c-39.8-13.2-74.1-32.3-107.7-60.2c-29.2-24.2-57.7-44.4-87.1-61.5c-145.6-85.9-272.1-79-394.5-72.4c-58.6,3.2-114,6.2-170-0.8
	C17.5,21.4,8.7,20,0,18.4v42.7c57.3,10.9,116.5,8.1,180.7,5c60.4-2.9,122.8-5.8,189.7,2.8c76.5,9.8,146.7,33.6,214.7,72.7
	c30.9,17.8,60.5,38.3,90.4,62.7c64.5,52.5,120.6,62.9,191.6,76.1c40.1,7.5,83.3,15.5,132.9,32v-50.6c-38.7-10.4-73.7-16-106.6-21.2
	C856.1,234.7,820.9,229.2,785.8,217.5z M706,79.3c-29.2-24.6-59.1-46.2-89.1-64.1c-9-5.4-18-10.5-26.9-15.2H466.2
	c50.3,13.4,98.2,33.6,145,61.3c31.2,18.3,61.4,39.6,92.3,65.2c65,53.9,122.8,63,196.1,74.6c31.2,4.9,64.2,10.2,100.3,19.3v-47.7
	c-25.6-4.9-49.7-8.1-72.8-11.2C851.8,151.5,780.5,142,706,79.3z M878.4,794.4C803.4,757.5,749,737.7,701,720.3
	c-66.5-24.1-119.1-43.2-190-94.9c-24.5-17.8-49.1-33-75.3-46.3c-122-62-224.2-60.9-323-59.9c-38.3,0.4-75.8,0.8-112.7-2.9v42.6
	c31.6,3,64.4,3,98.9,2.9c94.8-0.1,202.3-0.3,328.6,61.9c27.6,13.6,53.4,29,78.8,47c70,49.6,118.7,69.5,186.3,96.9
	c43.5,17.7,92.8,37.7,160.1,70.3c27.8,13.3,57.5,27.7,87.6,44.2c20.6,11.3,40.5,20.7,59.7,28.7v-52c-11.1-5.6-22.4-11.7-34-18.4
	C934.6,822.3,904.1,807,878.4,794.4z M835.4,874c-66.2-32-114.9-51.8-157.8-69.3c-70-28.5-120.6-49-194.4-101.4
	c-23.7-16.8-47.7-31.1-73.4-43.8c-118-58.1-216-58-310.9-57.8c-33.6,0.1-66.6,0.1-99-2.7v42.6c27.4,2.3,55.9,2.5,85.6,2.8
	c90.8,0.7,193.8,1.5,315.6,59.6c27.1,12.9,52.3,27.5,76.9,44.4C557.8,803.4,607,825.4,688.5,862c33.9,15.2,72.3,32.4,121,55.5
	l8.9,4.2c24.8,11.6,50.4,23.7,76.2,36.8c36.4,18.6,70.6,31.7,102.8,41.5h2.6v-46.1c-25.2-9.7-51.5-21.7-78.8-36.6
	C891.9,901.3,862.7,887.2,835.4,874z M400,937.5c-21.2-13.6-43.3-25.5-67.6-36.3c-105.3-46.8-194.9-49.3-274-51.5
	c-19.9-0.6-39.4-1.1-58.5-2.3v42.7c15,0.9,30.4,1.5,46.5,2.2c78.8,3,168,6.5,275.8,52.7c25.3,10.7,48.5,22.7,70.9,36.5
	c10.3,6.4,19.9,12.5,28.9,18.4h73.2c-12.3-8-24.7-16.2-37.8-24.8C439.8,963.5,421.5,951.4,400,937.5z M358.2,820.7
	c-109.6-50.5-203.5-52.2-286.4-53.6c-24.6-0.4-48.4-0.9-71.8-2.5v42.8c19,1.3,38.8,1.8,59.6,2.4c82.8,2.3,176.5,4.9,289.1,54.9
	c26.1,11.6,50,24.4,72.9,39.1c21.8,14,40.2,26.2,58,38c32.3,21.4,59.6,39.4,91.8,58.2h106.7c-111.8-52.8-156.8-78.1-250.5-140.5
	C405.7,844.8,382.9,832.1,358.2,820.7z M801.4,957.9l-9-4.2c-48.4-23-86.6-40.1-120.3-55.2c-83.5-37.5-133.9-60.1-216.7-117
	c-22.9-15.7-46.2-29.2-71.4-41.3c-113.8-54.3-212-55.1-298.7-55.7C56.4,684.2,28,684,0,681.8v42.8c23,1.7,47,2.1,72.5,2.5
	c86.8,1.5,185.2,3.2,302.4,57.3c26.6,12.3,51.1,25.9,74.9,41.8c109,72.6,150.9,94,316.4,170.8c2.2,1,4.3,2,6.5,3h115.4
	c-3.9-1.9-7.8-3.8-11.8-5.9C851.2,981.3,825.9,969.4,801.4,957.9z M45,932.3c-15.3-0.6-30.3-1.2-45-2.1v43.1
	c11.1,0.7,22.5,1.3,34.2,1.9c55.6,2.8,116.6,5.9,186.7,24.7h124c-12.2-6.5-24.9-12.5-38.2-18.1C205.6,938.5,120.3,935.2,45,932.3z"
	/>
</svg>
