<!-- Generator: Adobe Illustrator 24.3.0, SVG Export Plug-In  -->
<svg version="1.1" xmlns="http://www.w3.org/2000/svg" xmlns:xlink="http://www.w3.org/1999/xlink" x="0px" y="0px" width="639.1px"
	 height="688.2px" viewBox="0 0 639.1 688.2" style="overflow:visible;enable-background:new 0 0 639.1 688.2;"
	 xml:space="preserve">
<style type="text/css">
	.st0{fill-rule:evenodd;clip-rule:evenodd;fill:#939393;}
	.st1{fill:none;stroke:#FFFFFF;stroke-width:6;}
	.st2{fill:none;stroke:#FFFFFF;stroke-width:7.7805;stroke-linecap:round;}
	.st3{fill:#FFFFFF;}
	.st4{fill:#230000;}
	.st5{fill:none;stroke:#969696;stroke-width:6;}
</style>
<defs>
</defs>
<g>
	<desc>Created with Sketch.</desc>
	<g id="Page-1_1_">
		<g id="ic_tree_1_">
			<g id="Group_1_" transform="translate(24.000000, 6.000000)">
				<path id="Triangle-1-Copy-3_1_" class="st0" d="M356,127.7c9.6,13.4,20.3,26.8,20.3,26.8c13.7,19.7-4.8,44.2-28.1,36.4
					c0,0-26.8-5.2-38.9-5.2c-12.1,0-19.5,2.7-19.5,2.7c-22.2,3.3-26.2-17.5-12.5-37.2c0,0,8.5-10.9,17.5-23.5
					c-13.6,0.1-17.9-8.7-9.5-19.9l23.9-32.2c8.5-11.5,22.4-11.5,30.9,0l23.9,32.2C372.2,118.7,368.4,127.2,356,127.7z"/>
				<path id="Triangle-1-Copy_1_" class="st1" d="M335.2,126.2c9.7,11.6,22,24.6,22,24.6c13,15.6,6.9,29.4-14.1,26.8
					c0,0-22.3-3.2-33.8-3.2c-11.4,0-33.8,3.2-33.8,3.2c-21,2.6-24.7-13.9-11.8-29.4c0,0,10-10.7,19.5-22"/>
				<path id="Triangle-1-Copy-4_1_" class="st2" d="M334.4,158.3c-5.3-0.7-12.2-1.4-18.2-1.8 M297,157c-2.7,0.2-5.5,0.5-8,0.8"/>
				<path id="Triangle-1_1_" class="st1" d="M293.9,75.6c8.5-11.5,22.4-11.5,30.9,0l24.1,32.4c8.5,11.5,3.9,20.4-10.4,19.9
					c0,0-16.7-0.7-29.1-0.7s-29.1,0.7-29.1,0.7c-14.3,0.5-19-8.4-10.4-19.9L293.9,75.6z"/>
				<path id="Star-1_1_" class="st0" d="M332.8,50c-2.4-1-13.1-0.4-13.1-0.4l-13.1,3.3c-1.4,0.3-2.4-0.6-2.3-2l1.3-18.2l-12.9-15.6
					c-0.9-1.1-0.7-2.6,0.5-3.4l20.4-2.5l7.6-14.6c2.3-3.6,6-3.6,8.4,0l8.1,12.7l14.6,3.8c4.2,1.1,5.3,4.6,2.6,8l-9.6,11.6l0.9,15
					c0.3,4.3-2.7,6.5-6.8,4.9C339.4,52.7,336.5,51.5,332.8,50z"/>
				<g id="Shape_1_">
					<path class="st3" d="M310.4,1.2L310.4,1.2c0.3,0,0.6,0.3,0.7,0.5l8.1,12.7l1.3,2l2.3,0.6l14.5,3.7c0.3,0.1,0.6,0.2,0.7,0.5
						c0.1,0.3-0.1,0.6-0.3,0.8l-9.6,11.7l-1.5,1.8l0.2,2.4l1,15c0,0.2,0,0.6-0.2,0.8c-0.1,0.1-0.2,0.2-0.4,0.2c-0.2,0-0.3,0-0.5-0.1
						l-14-5.5l-2.2-0.9l-2.2,0.9l-14,5.5c-0.2,0.1-0.4,0.1-0.5,0.1c-0.2,0-0.3-0.1-0.4-0.2c-0.2-0.2-0.2-0.5-0.2-0.8l0.9-15l0.1-2.4
						l-1.5-1.8L283,22c-0.2-0.2-0.4-0.5-0.3-0.8c0.1-0.3,0.5-0.4,0.7-0.5l14.6-3.8l2.3-0.6l1.3-2l8-12.7
						C309.8,1.4,310.1,1.2,310.4,1.2 M310.4-4.8c-2.2,0-4.4,1.1-5.8,3.3l-8,12.7L282,14.9c-5,1.3-6.9,6.9-3.6,10.9l9.6,11.6l-0.9,15
						c-0.3,4.2,2.8,7.3,6.6,7.3c0.9,0,1.8-0.2,2.7-0.5l14-5.5l14,5.5c0.9,0.4,1.8,0.5,2.7,0.5c3.8,0,6.9-3.1,6.6-7.3l-1-15l9.6-11.7
						c3.3-4,1.5-9.6-3.6-10.9l-14.5-3.7l-8.1-12.7C314.7-3.7,312.5-4.8,310.4-4.8L310.4-4.8z"/>
				</g>
			</g>
		</g>
	</g>
</g>
<g>
	<g>
		<g>
			<path class="st4" d="M18.4,186.2c-3.2-3.9-4.8-7.4-4.8-10.5c0-3.1,2.6-7.2,7.9-12.4c3.1-2.9,6.3-4.4,9.7-4.4
				c3.4,0,8.2,3.1,14.3,9.2c1.7,2.1,4.2,4.1,7.3,6c3.2,1.9,6.1,2.8,8.8,2.8c11.4,0,17-4.6,17-13.9c0-2.8-1.6-5.2-4.7-7.1
				c-3.1-1.9-7-3.3-11.6-4.1c-4.6-0.9-9.7-2.2-15-4.1c-5.4-1.9-10.4-4.1-15-6.7c-4.6-2.6-8.5-6.6-11.6-12.2
				c-3.1-5.6-4.7-12.2-4.7-20.1c0-10.7,4-20.1,12-28.1c8-8,18.9-12,32.7-12c7.3,0,14,0.9,20.1,2.8c6,1.9,10.2,3.8,12.6,5.8l4.6,3.5
				c3.8,3.5,5.7,6.5,5.7,9c0,2.4-1.5,5.8-4.4,10.1c-4.2,6.1-8.4,9.2-12.8,9.2c-2.6,0-5.7-1.2-9.5-3.7c-0.4-0.2-1.1-0.9-2.1-1.8
				c-1-1-2-1.8-2.8-2.4c-2.6-1.6-5.8-2.4-9.8-2.4c-4,0-7.3,0.9-9.9,2.8c-2.6,1.9-3.9,4.5-3.9,7.9c0,3.4,1.6,6.1,4.7,8.2
				c3.1,2.1,7,3.5,11.6,4.2c4.6,0.7,9.7,1.9,15.2,3.4c5.5,1.5,10.6,3.4,15.2,5.6c4.6,2.2,8.5,6,11.6,11.5c3.1,5.4,4.7,12.1,4.7,20.1
				c0,7.9-1.6,14.9-4.8,21c-3.2,6-7.3,10.7-12.5,14c-9.9,6.5-20.5,9.7-31.7,9.7c-5.7,0-11.2-0.7-16.3-2.1c-5.1-1.4-9.3-3.1-12.5-5.2
				c-6.5-3.9-11-7.7-13.6-11.4L18.4,186.2z"/>
			<path class="st4" d="M266,75.9c1,1.8,1.6,3.5,1.7,4.9c0.2,1.5,0.3,3.6,0.3,6.4v101.7c0,8.4-2.3,13.4-7,14.8
				c-2.3,0.7-5.3,1.1-8.8,1.1c-3.5,0-6.4-0.3-8.4-0.9c-2.1-0.6-3.7-1.3-4.8-2.2c-1.1-0.9-2-2.1-2.6-3.7c-0.6-2.1-0.9-5.3-0.9-9.5
				v-61.4c-3.1,3.8-7.5,9.8-13.4,18.1s-9.6,13.4-11.2,15.5c-1.6,2.1-2.7,3.5-3.3,4.3c-0.6,0.8-2.1,1.9-4.5,3.3
				c-2.4,1.4-4.9,2.1-7.7,2.1c-2.8,0-5.3-0.6-7.5-1.9c-2.3-1.3-3.9-2.5-4.9-3.8l-1.5-2c-2.4-3.1-7.3-9.6-14.5-19.5
				c-7.2-10-11.1-15.3-11.7-16v61.8c0,2.8-0.1,4.9-0.3,6.3c-0.2,1.4-0.8,3-1.7,4.7c-1.8,3.3-6.6,4.9-14.3,4.9
				c-7.5,0-12.1-1.7-13.9-4.9c-1-1.7-1.6-3.3-1.7-4.8c-0.2-1.5-0.3-3.7-0.3-6.6V86.9c0-2.8,0.1-4.9,0.3-6.3c0.2-1.4,0.8-3,1.7-4.9
				c1.8-3.2,6.6-4.8,14.3-4.8c3.3,0,6.1,0.4,8.5,1.2c2.4,0.8,3.9,1.6,4.7,2.5l1.1,1.1l41.6,54.6c20.8-27.5,34.6-45.6,41.6-54.4
				c2.1-3.3,7-4.9,14.8-4.9C259.5,70.9,264.2,72.6,266,75.9z"/>
			<path class="st4" d="M419.4,186.2c-3.2-3.9-4.8-7.4-4.8-10.5c0-3.1,2.6-7.2,7.9-12.4c3.1-2.9,6.3-4.4,9.7-4.4
				c3.4,0,8.2,3.1,14.3,9.2c1.7,2.1,4.2,4.1,7.3,6c3.2,1.9,6.1,2.8,8.8,2.8c11.4,0,17-4.6,17-13.9c0-2.8-1.6-5.2-4.7-7.1
				c-3.1-1.9-7-3.3-11.6-4.1c-4.6-0.9-9.7-2.2-15-4.1c-5.4-1.9-10.4-4.1-15-6.7c-4.6-2.6-8.5-6.6-11.6-12.2
				c-3.1-5.6-4.7-12.2-4.7-20.1c0-10.7,4-20.1,12-28.1c8-8,18.9-12,32.7-12c7.3,0,14,0.9,20.1,2.8c6,1.9,10.2,3.8,12.6,5.8l4.6,3.5
				c3.8,3.5,5.7,6.5,5.7,9c0,2.4-1.5,5.8-4.4,10.1c-4.2,6.1-8.4,9.2-12.8,9.2c-2.6,0-5.7-1.2-9.5-3.7c-0.4-0.2-1.1-0.9-2.1-1.8
				c-1-1-2-1.8-2.8-2.4c-2.6-1.6-5.8-2.4-9.8-2.4c-4,0-7.3,0.9-9.9,2.8c-2.6,1.9-3.9,4.5-3.9,7.9c0,3.4,1.6,6.1,4.7,8.2
				c3.1,2.1,7,3.5,11.6,4.2c4.6,0.7,9.7,1.9,15.2,3.4c5.5,1.5,10.6,3.4,15.2,5.6c4.6,2.2,8.5,6,11.6,11.5c3.1,5.4,4.7,12.1,4.7,20.1
				c0,7.9-1.6,14.9-4.8,21c-3.2,6-7.3,10.7-12.5,14c-9.9,6.5-20.5,9.7-31.7,9.7c-5.7,0-11.2-0.7-16.3-2.1c-5.1-1.4-9.3-3.1-12.5-5.2
				c-6.5-3.9-11-7.7-13.6-11.4L419.4,186.2z"/>
			<path class="st4" d="M607.2,75.7c1-1.8,2.6-3.1,4.9-3.8c2.3-0.7,5.3-1.1,8.8-1.1c3.5,0,6.4,0.3,8.4,0.9c2.1,0.6,3.7,1.3,4.8,2.2
				c1.1,0.9,2,2.1,2.6,3.7c0.6,2.1,0.9,5.3,0.9,9.5v101.7c0,2.8-0.1,4.9-0.3,6.3c-0.2,1.4-0.8,3-1.7,4.9c-1.7,3.3-6.5,4.9-14.3,4.9
				c-8.6,0-13.6-2.3-15-6.8c-0.7-2.1-1.1-5.3-1.1-9.5v-37.2h-48.6v37.4c0,2.8-0.1,4.9-0.3,6.3c-0.2,1.4-0.8,3-1.7,4.9
				c-1.7,3.3-6.5,4.9-14.3,4.9c-8.6,0-13.6-2.3-15-6.8c-0.7-2.1-1.1-5.3-1.1-9.5V86.9c0-2.8,0.1-4.9,0.3-6.3c0.2-1.4,0.8-3,1.7-4.9
				c1.7-3.3,6.5-4.9,14.3-4.9c8.6,0,13.6,2.3,15.2,6.8c0.6,2.1,0.9,5.3,0.9,9.5v37.4h48.6V86.9c0-2.8,0.1-4.9,0.3-6.3
				C605.6,79.1,606.2,77.5,607.2,75.7z"/>
			<path class="st4" d="M59.2,333.1h56.4c2.8,0,4.9,0.1,6.3,0.3c1.4,0.2,3,0.8,4.9,1.7c3.3,1.7,4.9,6.5,4.9,14.3
				c0,8.6-2.3,13.6-6.8,15c-2.1,0.7-5.3,1.1-9.5,1.1H42.9c-8.6,0-13.6-2.3-15-7c-0.7-2-1.1-5.1-1.1-9.3V247.3
				c0-6.2,1.2-10.5,3.5-12.7c2.3-2.3,6.7-3.4,13.2-3.4h72.2c2.8,0,4.9,0.1,6.3,0.3c1.4,0.2,3,0.8,4.9,1.7c3.3,1.7,4.9,6.5,4.9,14.3
				c0,8.6-2.3,13.6-6.8,15c-2.1,0.7-5.3,1.1-9.5,1.1H59.2v18.5h36.3c2.8,0,4.9,0.1,6.3,0.3c1.4,0.2,3,0.8,4.9,1.7
				c3.3,1.7,4.9,6.5,4.9,14.3c0,8.6-2.3,13.6-7,15c-2.1,0.7-5.3,1.1-9.5,1.1H59.2V333.1z"/>
			<path class="st4" d="M266.3,233.2c7.2,3.5,10.8,7.5,10.8,11.7c0,2-0.9,4.9-2.7,8.8l-50.6,102.6c-1.3,2.7-3.4,4.9-6.1,6.5
				c-2.7,1.7-5.6,2.5-8.5,2.5h-1.8c-3.1,0-6-0.8-8.7-2.5c-2.7-1.6-4.8-3.8-6.1-6.5l-50.6-102.6c-1.8-3.9-2.7-6.8-2.7-8.8
				c0-4.3,3.6-8.2,10.8-11.7c4-2.1,7.1-3.1,9.3-3.1c2.1,0,3.8,0.2,4.9,0.7c1.1,0.5,2.1,1.3,3.1,2.6c1.1,1.5,2.1,3.1,3,4.9
				c0.9,1.8,3.3,6.8,7.1,15.2c3.8,8.4,7.8,17.3,12.2,26.7c4.3,9.4,8.4,18.3,12.3,26.7c3.8,8.4,6,13,6.5,14l36.7-80.3
				c1-2.3,1.8-4.2,2.6-5.5c2.2-3.3,4.9-4.9,8.1-4.9C258.7,230.1,262.3,231.1,266.3,233.2z"/>
			<path class="st4" d="M319.7,333.1h56.4c2.8,0,4.9,0.1,6.3,0.3c1.4,0.2,3,0.8,4.9,1.7c3.3,1.7,4.9,6.5,4.9,14.3
				c0,8.6-2.3,13.6-6.8,15c-2.1,0.7-5.3,1.1-9.5,1.1h-72.6c-8.6,0-13.6-2.3-15-7c-0.7-2-1.1-5.1-1.1-9.3V247.3
				c0-6.2,1.2-10.5,3.5-12.7c2.3-2.3,6.7-3.4,13.2-3.4h72.2c2.8,0,4.9,0.1,6.3,0.3c1.4,0.2,3,0.8,4.9,1.7c3.3,1.7,4.9,6.5,4.9,14.3
				c0,8.6-2.3,13.6-6.8,15c-2.1,0.7-5.3,1.1-9.5,1.1h-56.3v18.5h36.3c2.8,0,4.9,0.1,6.3,0.3c1.4,0.2,3,0.8,4.9,1.7
				c3.3,1.7,4.9,6.5,4.9,14.3c0,8.6-2.3,13.6-7,15c-2.1,0.7-5.3,1.1-9.5,1.1h-35.9V333.1z"/>
			<path class="st4" d="M506.9,342.8c1.8,4.4,2.7,7.6,2.7,9.5c0,4.6-3.8,8.6-11.4,11.7c-3.9,1.7-7.1,2.6-9.4,2.6s-4.3-0.6-5.9-1.7
				c-1.5-1.2-2.7-2.3-3.4-3.6c-1.2-2.3-6-13.4-14.3-33.2l-5.7,0.4h-23.1v20.7c0,2.8-0.1,4.9-0.3,6.3c-0.2,1.4-0.8,3-1.7,4.9
				c-1.7,3.3-6.5,4.9-14.3,4.9c-8.6,0-13.6-2.3-15-6.8c-0.7-2.1-1.1-5.3-1.1-9.5V247.3c0-2.8,0.1-4.9,0.3-6.3c0.2-1.4,0.8-3,1.7-4.9
				c1.7-3.3,6.5-4.9,14.3-4.9H460c10.8,0,21.2,3.9,31.3,11.7c4.9,3.8,8.9,8.9,12.1,15.4c3.2,6.5,4.8,13.7,4.8,21.6
				c0,13.8-4.6,25.2-13.7,34.1C497.2,320.5,501.3,330.1,506.9,342.8z M436.6,296H460c3.5,0,7.1-1.3,10.6-4c3.5-2.7,5.3-6.7,5.3-12.1
				c0-5.4-1.8-9.4-5.3-12.2c-3.5-2.8-7.2-4.1-11-4.1h-23.1V296z"/>
			<path class="st4" d="M622.8,233.7c6,4.2,9,8.2,9,12.1c0,2.3-1.4,5.6-4.2,9.7L588,314.7v35c0,2.8-0.1,4.9-0.3,6.3
				c-0.2,1.4-0.8,3-1.7,4.9c-1,1.8-2.6,3.1-4.9,3.8c-2.3,0.7-5.4,1.1-9.3,1.1c-3.9,0-7-0.4-9.3-1.1c-2.3-0.7-4-2-4.9-3.9
				c-1-1.9-1.6-3.5-1.7-4.9c-0.2-1.4-0.3-3.6-0.3-6.5v-34.6l-39.6-59.2c-2.8-4.2-4.2-7.4-4.2-9.7c0-3.9,2.7-7.7,8.1-11.3
				c5.4-3.6,9.2-5.4,11.5-5.4c2.3,0,4.2,0.5,5.5,1.5c2.1,1.3,4.3,3.8,6.6,7.5l28.4,45.5l28.4-45.5c2.3-3.7,4.3-6.1,6-7.2
				c1.7-1.2,3.7-1.7,6-1.7C614.3,229.1,617.9,230.7,622.8,233.7z"/>
			<path class="st4" d="M162.2,396.7c1,1.8,1.6,3.5,1.7,4.9c0.2,1.5,0.3,3.6,0.3,6.4v101.7c0,8.4-2.3,13.4-7,14.8
				c-2.3,0.7-5.3,1.1-8.8,1.1c-3.5,0-6.4-0.3-8.4-0.9c-2.1-0.6-3.7-1.3-4.8-2.2c-1.1-0.9-2-2.1-2.6-3.7c-0.6-2.1-0.9-5.3-0.9-9.5
				V448c-3.1,3.8-7.5,9.8-13.4,18.1s-9.6,13.4-11.2,15.5c-1.6,2.1-2.7,3.5-3.3,4.3c-0.6,0.8-2.1,1.9-4.5,3.3
				c-2.4,1.4-4.9,2.1-7.7,2.1c-2.8,0-5.3-0.6-7.5-1.9c-2.3-1.3-3.9-2.5-4.9-3.8l-1.5-2c-2.4-3.1-7.3-9.6-14.5-19.5
				c-7.2-10-11.1-15.3-11.7-16v61.8c0,2.8-0.1,4.9-0.3,6.3c-0.2,1.4-0.8,3-1.7,4.7c-1.8,3.3-6.6,4.9-14.3,4.9
				c-7.5,0-12.1-1.6-13.9-4.9c-1-1.7-1.6-3.3-1.7-4.8c-0.2-1.5-0.3-3.7-0.3-6.6V407.7c0-2.8,0.1-4.9,0.3-6.3c0.2-1.4,0.8-3,1.7-4.9
				c1.8-3.2,6.6-4.8,14.3-4.8c3.3,0,6.1,0.4,8.5,1.2c2.4,0.8,3.9,1.6,4.7,2.5l1.1,1.1l41.6,54.6c20.8-27.5,34.6-45.6,41.6-54.4
				c2.1-3.3,7-4.9,14.8-4.9C155.8,391.8,160.5,393.4,162.2,396.7z"/>
			<path class="st4" d="M211.3,493.5h56.4c2.8,0,4.9,0.1,6.3,0.3c1.4,0.2,3,0.8,4.9,1.7c3.3,1.7,4.9,6.5,4.9,14.3
				c0,8.6-2.3,13.6-6.8,15c-2.1,0.7-5.3,1.1-9.5,1.1H195c-8.6,0-13.6-2.3-15-7c-0.7-2-1.1-5.1-1.1-9.3V407.7
				c0-6.2,1.2-10.5,3.5-12.7c2.3-2.3,6.7-3.4,13.2-3.4h72.2c2.8,0,4.9,0.1,6.3,0.3c1.4,0.2,3,0.8,4.9,1.7c3.3,1.7,4.9,6.5,4.9,14.3
				c0,8.6-2.3,13.6-6.8,15c-2.1,0.7-5.3,1.1-9.5,1.1h-56.3v18.5h36.3c2.8,0,4.9,0.1,6.3,0.3c1.4,0.2,3,0.8,4.9,1.7
				c3.3,1.7,4.9,6.5,4.9,14.3c0,8.6-2.3,13.6-7,15c-2.1,0.7-5.3,1.1-9.5,1.1h-35.9V493.5z"/>
			<path class="st4" d="M398.6,503.2c1.8,4.4,2.7,7.6,2.7,9.5c0,4.6-3.8,8.6-11.4,11.7c-3.9,1.7-7.1,2.6-9.4,2.6s-4.3-0.6-5.9-1.7
				c-1.5-1.2-2.7-2.4-3.4-3.6c-1.2-2.3-6-13.4-14.3-33.2l-5.7,0.4h-23.1v20.7c0,2.8-0.1,4.9-0.3,6.3c-0.2,1.4-0.8,3-1.7,4.9
				c-1.7,3.3-6.5,4.9-14.3,4.9c-8.6,0-13.6-2.3-15-6.8c-0.7-2.1-1.1-5.3-1.1-9.5V407.7c0-2.8,0.1-4.9,0.3-6.3c0.2-1.4,0.8-3,1.7-4.9
				c1.7-3.3,6.5-4.9,14.3-4.9h39.6c10.8,0,21.2,3.9,31.3,11.7c4.9,3.8,8.9,8.9,12.1,15.4c3.2,6.5,4.8,13.7,4.8,21.6
				c0,13.8-4.6,25.2-13.7,34.1C388.9,480.9,393,490.5,398.6,503.2z M328.3,456.5h23.5c3.5,0,7.1-1.3,10.6-4
				c3.5-2.7,5.3-6.7,5.3-12.1c0-5.4-1.8-9.4-5.3-12.2c-3.5-2.7-7.2-4.1-11-4.1h-23.1V456.5z"/>
			<path class="st4" d="M514.3,503.2c1.8,4.4,2.7,7.6,2.7,9.5c0,4.6-3.8,8.6-11.4,11.7c-3.9,1.7-7.1,2.6-9.4,2.6s-4.3-0.6-5.9-1.7
				c-1.5-1.2-2.7-2.4-3.4-3.6c-1.2-2.3-6-13.4-14.3-33.2l-5.7,0.4h-23.1v20.7c0,2.8-0.1,4.9-0.3,6.3c-0.2,1.4-0.8,3-1.7,4.9
				c-1.7,3.3-6.5,4.9-14.3,4.9c-8.6,0-13.6-2.3-15-6.8c-0.7-2.1-1.1-5.3-1.1-9.5V407.7c0-2.8,0.1-4.9,0.3-6.3c0.2-1.4,0.8-3,1.7-4.9
				c1.7-3.3,6.5-4.9,14.3-4.9h39.6c10.8,0,21.2,3.9,31.3,11.7c4.9,3.8,8.9,8.9,12.1,15.4c3.2,6.5,4.8,13.7,4.8,21.6
				c0,13.8-4.6,25.2-13.7,34.1C504.5,480.9,508.7,490.5,514.3,503.2z M443.9,456.5h23.5c3.5,0,7.1-1.3,10.6-4
				c3.5-2.7,5.3-6.7,5.3-12.1c0-5.4-1.8-9.4-5.3-12.2c-3.5-2.7-7.2-4.1-11-4.1h-23.1V456.5z"/>
			<path class="st4" d="M630.1,394.2c6,4.2,9,8.2,9,12.1c0,2.3-1.4,5.6-4.2,9.7l-39.6,59.2v35c0,2.8-0.1,4.9-0.3,6.3
				c-0.2,1.4-0.8,3-1.7,4.9c-1,1.8-2.6,3.1-4.9,3.8c-2.3,0.7-5.4,1.1-9.3,1.1c-3.9,0-7-0.4-9.3-1.1c-2.3-0.7-4-2-4.9-3.9
				c-1-1.9-1.6-3.5-1.7-4.9c-0.2-1.4-0.3-3.6-0.3-6.5v-34.6L523.1,416c-2.8-4.2-4.2-7.4-4.2-9.7c0-3.9,2.7-7.7,8.1-11.3
				c5.4-3.6,9.2-5.4,11.5-5.4c2.3,0,4.2,0.5,5.5,1.5c2.1,1.3,4.3,3.8,6.6,7.5L579,444l28.4-45.5c2.3-3.7,4.3-6.1,6-7.2
				c1.7-1.2,3.7-1.7,6-1.7C621.6,389.6,625.2,391.1,630.1,394.2z"/>
			<path class="st4" d="M32.7,551.8h101.9c3.9,0,6.8,0.5,8.6,1.4c1.8,0.9,3.1,2.4,3.7,4.3c0.6,2,0.9,4.5,0.9,7.7
				c0,3.2-0.3,5.7-0.9,7.6c-0.6,1.9-1.6,3.2-3.1,3.9c-2.2,1.1-5.3,1.6-9.3,1.6h-35v92.2c0,2.8-0.1,4.9-0.3,6.2
				c-0.2,1.3-0.7,2.9-1.6,4.7c-0.9,1.8-2.5,3-4.9,3.8c-2.3,0.7-5.4,1.1-9.2,1.1c-3.8,0-6.8-0.4-9.1-1.1c-2.3-0.7-3.8-2-4.8-3.8
				c-0.9-1.8-1.5-3.4-1.6-4.8c-0.2-1.4-0.3-3.5-0.3-6.3v-92H32.5c-3.9,0-6.8-0.5-8.6-1.4c-1.8-0.9-3.1-2.4-3.7-4.3
				c-0.6-2-0.9-4.5-0.9-7.7c0-3.2,0.3-5.7,0.9-7.6c0.6-1.9,1.6-3.2,3.1-3.9C25.5,552.4,28.6,551.8,32.7,551.8z"/>
			<path class="st4" d="M240.9,557c1-1.8,2.6-3.1,4.9-3.8c2.3-0.7,5.3-1.1,8.8-1.1c3.5,0,6.4,0.3,8.4,0.9c2.1,0.6,3.7,1.3,4.8,2.2
				c1.1,0.9,2,2.1,2.6,3.7c0.6,2.1,0.9,5.3,0.9,9.5V670c0,2.8-0.1,4.9-0.3,6.3c-0.2,1.4-0.8,3-1.7,4.9c-1.7,3.3-6.5,4.9-14.3,4.9
				c-8.6,0-13.6-2.3-15-6.8c-0.7-2.1-1.1-5.3-1.1-9.5v-37.2h-48.6V670c0,2.8-0.1,4.9-0.3,6.3c-0.2,1.4-0.8,3-1.7,4.9
				c-1.7,3.3-6.5,4.9-14.3,4.9c-8.6,0-13.6-2.3-15-6.8c-0.7-2.1-1.1-5.3-1.1-9.5V568.1c0-2.8,0.1-4.9,0.3-6.3c0.2-1.4,0.8-3,1.7-4.9
				c1.7-3.3,6.5-4.9,14.3-4.9c8.6,0,13.6,2.3,15.2,6.8c0.6,2.1,0.9,5.3,0.9,9.5v37.4h48.6v-37.6c0-2.8,0.1-4.9,0.3-6.3
				C239.3,560.4,239.9,558.8,240.9,557z"/>
			<path class="st4" d="M285.9,568.1c0-2.8,0.1-4.9,0.3-6.3c0.2-1.4,0.8-3,1.7-4.9c1.7-3.3,6.5-4.9,14.3-4.9
				c8.6,0,13.6,2.3,15.2,6.8c0.6,2.1,0.9,5.3,0.9,9.5v101.9c0,2.9-0.1,5.1-0.3,6.4c-0.2,1.3-0.8,2.9-1.7,4.8
				c-1.7,3.3-6.5,4.9-14.3,4.9c-8.6,0-13.6-2.3-15-7c-0.7-2-1.1-5.1-1.1-9.3V568.1z"/>
			<path class="st4" d="M419.8,557.6c1.2-2.1,2.9-3.6,5.2-4.3c2.3-0.7,5.2-1.1,8.7-1.1s6.3,0.3,8.4,0.9c2.1,0.6,3.7,1.3,4.8,2.2
				c1,0.9,1.8,2.1,2.3,3.8c0.7,2,1.1,5.1,1.1,9.3v101.7c0,2.9-0.1,5.1-0.3,6.4c-0.2,1.3-0.8,2.9-1.7,4.8c-1.7,3.3-6.5,4.9-14.3,4.9
				c-4.8,0-8.1-0.4-9.9-1.1c-1.8-0.7-3.4-1.9-4.6-3.5c-27.5-36.7-45.6-60.6-54.2-71.8v60.3c0,2.9-0.1,5.1-0.3,6.4
				c-0.2,1.3-0.8,2.9-1.7,4.8c-1.7,3.3-6.5,4.9-14.3,4.9c-7.6,0-12.2-1.6-13.9-4.9c-1-1.8-1.6-3.5-1.7-4.9s-0.3-3.6-0.3-6.4V567.8
				c0-4.6,0.6-8,1.7-10.2c1.2-2.1,2.9-3.6,5.2-4.3c2.3-0.7,5.3-1.1,9-1.1c3.7,0,6.6,0.3,8.7,1c2.1,0.7,3.6,1.4,4.5,2.3
				c0.5,0.4,1.9,2,4.2,4.8c25.8,35.1,43,58.2,51.7,69.5v-61.9C418.1,563.1,418.6,559.7,419.8,557.6z"/>
			<path class="st4" d="M535,605.3h32.3c6.6,0.2,10.6,2,12.1,5.1c1.2,2.3,1.8,5.7,1.8,10.3v40.3c0,3.9-1.7,7.6-5.1,11.2
				c-10.3,10.6-25.7,15.9-46.2,15.9c-18.2,0-34-6.9-47.5-20.6c-13.4-13.7-20.2-30.3-20.2-49.8s6.8-35.6,20.5-48.7
				c13.7-13,29.8-19.5,48.4-19.5c14.4,0,28,4.8,40.9,14.3c3.3,2.4,4.9,5.2,4.9,8.2c0,3-1.4,6.4-4.2,10.4c-4.8,6.5-9.1,9.7-13,9.7
				c-2.3,0-6-1.7-11.2-5c-5.1-3.4-11.2-5-18.3-5c-9.3,0-17.5,3.3-24.7,9.8c-7.2,6.5-10.8,15.1-10.8,25.7c0,10.6,3.7,19.5,11,26.9
				c7.3,7.4,15.6,11.1,24.9,11.1c6.7,0,12.8-1.1,18.1-3.3v-20h-14.5c-3.8,0-6.5-0.5-8.1-1.5c-1.6-1-2.6-2.4-3.1-4.3
				c-0.5-1.9-0.7-4.5-0.7-7.7c0-3.2,0.3-5.8,0.8-7.8c0.5-2,1.6-3.3,3-4C528.4,605.9,531.3,605.3,535,605.3z"/>
			<path class="st4" d="M597.7,658.4c1.2-2.4,3.1-4,5.6-4.9c2.5-0.9,6.4-1.3,11.7-1.3c5.3,0,9.2,1.2,11.5,3.5c2.4,2.3,3.6,6,3.6,11
				v2.9c0,2.9-0.1,5.1-0.3,6.5c-0.2,1.4-0.8,3.1-1.7,5c-2,3.5-6.6,5.3-14,5.3c-7.4,0-12.3-1.2-14.7-3.6c-2.4-2.4-3.6-7-3.6-13.8
				C595.8,664.4,596.4,660.8,597.7,658.4z M622.2,637.1c-2.3,0.6-5.4,0.9-9.3,0.9c-3.9,0-7-0.3-9.3-0.9c-2.3-0.6-3.9-1.7-4.9-3.3
				c-0.9-1.6-1.5-3-1.6-4.2c-0.2-1.2-0.3-3.1-0.3-5.7v-58.1c0-2.6,0.1-4.5,0.3-5.8c0.2-1.3,0.8-2.7,1.7-4.3c1-1.6,2.6-2.7,4.9-3.4
				c2.3-0.7,5.4-1,9.3-1c3.9,0,7,0.3,9.3,1c2.3,0.7,3.9,1.8,4.9,3.5c0.9,1.6,1.5,3.1,1.6,4.4c0.2,1.3,0.3,3.2,0.3,5.8V624
				c0,2.6-0.1,4.5-0.3,5.7c-0.2,1.2-0.8,2.6-1.7,4.1C626.2,635.4,624.5,636.4,622.2,637.1z"/>
		</g>
	</g>
	<g>
		<path class="st5" d="M7.8,175.6c-3.2-3.9-4.8-7.4-4.8-10.5s2.6-7.2,7.9-12.4c3.1-2.9,6.3-4.4,9.7-4.4c3.4,0,8.2,3.1,14.3,9.2
			c1.7,2.1,4.2,4.1,7.3,6c3.2,1.9,6.1,2.8,8.8,2.8c11.4,0,17-4.6,17-13.9c0-2.8-1.6-5.2-4.7-7.1c-3.1-1.9-7-3.3-11.6-4.1
			c-4.6-0.9-9.7-2.2-15-4.1c-5.4-1.9-10.4-4.1-15-6.7c-4.6-2.6-8.5-6.6-11.6-12.2c-3.1-5.6-4.7-12.2-4.7-20.1c0-10.8,4-20.1,12-28.1
			c8-8,18.9-12,32.7-12c7.3,0,14,0.9,20.1,2.8c6,1.9,10.2,3.8,12.6,5.8l4.6,3.5c3.8,3.5,5.7,6.5,5.7,9c0,2.4-1.5,5.8-4.4,10.1
			c-4.2,6.1-8.4,9.2-12.8,9.2c-2.6,0-5.7-1.2-9.5-3.7c-0.4-0.2-1.1-0.9-2.1-1.8c-1-1-2-1.8-2.8-2.4c-2.6-1.6-5.8-2.4-9.8-2.4
			c-4,0-7.3,0.9-9.9,2.8c-2.6,1.9-3.9,4.5-3.9,7.9c0,3.4,1.6,6.1,4.7,8.2c3.1,2.1,7,3.5,11.6,4.2c4.6,0.7,9.7,1.9,15.2,3.4
			c5.5,1.5,10.6,3.4,15.2,5.6c4.6,2.2,8.5,6,11.6,11.5c3.1,5.4,4.7,12.1,4.7,20.1c0,7.9-1.6,14.9-4.8,21c-3.2,6-7.3,10.7-12.5,14
			c-9.9,6.5-20.5,9.7-31.7,9.7c-5.7,0-11.2-0.7-16.3-2.1c-5.1-1.4-9.3-3.1-12.5-5.2c-6.5-3.9-11-7.7-13.6-11.4L7.8,175.6z"/>
		<path class="st5" d="M255.4,65.3c1,1.8,1.6,3.5,1.7,4.9c0.2,1.5,0.3,3.6,0.3,6.4v101.7c0,8.4-2.3,13.4-7,14.8
			c-2.3,0.7-5.3,1.1-8.8,1.1c-3.5,0-6.4-0.3-8.4-0.9c-2.1-0.6-3.7-1.3-4.8-2.2c-1.1-0.9-2-2.1-2.6-3.7c-0.6-2.1-0.9-5.3-0.9-9.5
			v-61.4c-3.1,3.8-7.5,9.8-13.4,18.1c-5.9,8.2-9.6,13.4-11.2,15.5c-1.6,2.1-2.7,3.5-3.3,4.3c-0.6,0.8-2.1,1.9-4.5,3.3
			c-2.4,1.4-4.9,2.1-7.7,2.1c-2.7,0-5.3-0.6-7.5-1.9c-2.3-1.3-3.9-2.5-4.9-3.8l-1.5-2c-2.4-3.1-7.3-9.6-14.5-19.5
			c-7.2-10-11.1-15.3-11.7-16v61.8c0,2.8-0.1,4.9-0.3,6.3c-0.2,1.4-0.8,3-1.7,4.7c-1.8,3.3-6.6,4.9-14.3,4.9
			c-7.5,0-12.1-1.6-13.9-4.9c-1-1.7-1.6-3.3-1.7-4.8s-0.3-3.7-0.3-6.6V76.3c0-2.8,0.1-4.9,0.3-6.3c0.2-1.4,0.8-3,1.7-4.9
			c1.8-3.2,6.6-4.8,14.3-4.8c3.3,0,6.1,0.4,8.5,1.2c2.4,0.8,3.9,1.6,4.7,2.5l1.1,1.1l41.6,54.6c20.8-27.5,34.6-45.6,41.6-54.4
			c2.1-3.3,7-4.9,14.8-4.9C248.9,60.3,253.6,62,255.4,65.3z"/>
		<path class="st5" d="M408.8,175.6c-3.2-3.9-4.8-7.4-4.8-10.5s2.6-7.2,7.9-12.4c3.1-2.9,6.3-4.4,9.7-4.4c3.4,0,8.2,3.1,14.3,9.2
			c1.7,2.1,4.2,4.1,7.3,6c3.2,1.9,6.1,2.8,8.8,2.8c11.4,0,17-4.6,17-13.9c0-2.8-1.6-5.2-4.7-7.1c-3.1-1.9-7-3.3-11.6-4.1
			c-4.6-0.9-9.7-2.2-15-4.1c-5.4-1.9-10.4-4.1-15-6.7c-4.6-2.6-8.5-6.6-11.6-12.2c-3.1-5.6-4.7-12.2-4.7-20.1c0-10.8,4-20.1,12-28.1
			c8-8,18.9-12,32.7-12c7.3,0,14,0.9,20.1,2.8c6,1.9,10.2,3.8,12.6,5.8l4.6,3.5c3.8,3.5,5.7,6.5,5.7,9c0,2.4-1.5,5.8-4.4,10.1
			c-4.2,6.1-8.4,9.2-12.8,9.2c-2.6,0-5.7-1.2-9.5-3.7c-0.4-0.2-1.1-0.9-2.1-1.8c-1-1-2-1.8-2.8-2.4c-2.6-1.6-5.8-2.4-9.8-2.4
			c-4,0-7.3,0.9-9.9,2.8c-2.6,1.9-3.9,4.5-3.9,7.9c0,3.4,1.6,6.1,4.7,8.2c3.1,2.1,7,3.5,11.6,4.2c4.6,0.7,9.7,1.9,15.2,3.4
			c5.5,1.5,10.6,3.4,15.2,5.6c4.6,2.2,8.5,6,11.6,11.5c3.1,5.4,4.7,12.1,4.7,20.1c0,7.9-1.6,14.9-4.8,21c-3.2,6-7.3,10.7-12.5,14
			c-9.9,6.5-20.5,9.7-31.7,9.7c-5.7,0-11.2-0.7-16.3-2.1c-5.1-1.4-9.3-3.1-12.5-5.2c-6.5-3.9-11-7.7-13.6-11.4L408.8,175.6z"/>
		<path class="st5" d="M596.6,65.1c1-1.8,2.6-3.1,4.9-3.8c2.3-0.7,5.3-1.1,8.8-1.1c3.5,0,6.4,0.3,8.4,0.9c2.1,0.6,3.7,1.3,4.8,2.2
			c1.1,0.9,2,2.1,2.6,3.7c0.6,2.1,0.9,5.3,0.9,9.5v101.7c0,2.8-0.1,4.9-0.3,6.3c-0.2,1.4-0.8,3-1.7,4.9c-1.7,3.3-6.5,4.9-14.3,4.9
			c-8.6,0-13.6-2.3-15-6.8c-0.7-2.1-1.1-5.3-1.1-9.5v-37.2H546v37.4c0,2.8-0.1,4.9-0.3,6.3c-0.2,1.4-0.8,3-1.7,4.9
			c-1.7,3.3-6.5,4.9-14.3,4.9c-8.6,0-13.6-2.3-15-6.8c-0.7-2.1-1.1-5.3-1.1-9.5V76.3c0-2.8,0.1-4.9,0.3-6.3c0.2-1.4,0.8-3,1.7-4.9
			c1.7-3.3,6.5-4.9,14.3-4.9c8.6,0,13.6,2.3,15.2,6.8c0.6,2.1,0.9,5.3,0.9,9.5v37.4h48.6V76.3c0-2.8,0.1-4.9,0.3-6.3
			C595,68.5,595.6,66.9,596.6,65.1z"/>
		<path class="st5" d="M48.6,322.5h56.4c2.8,0,4.9,0.1,6.3,0.3c1.4,0.2,3,0.8,4.9,1.7c3.3,1.7,4.9,6.5,4.9,14.3
			c0,8.6-2.3,13.6-6.8,15c-2.1,0.7-5.3,1.1-9.5,1.1H32.3c-8.6,0-13.6-2.3-15-7c-0.7-2-1.1-5.1-1.1-9.3V236.7
			c0-6.2,1.2-10.5,3.5-12.7c2.3-2.3,6.7-3.4,13.2-3.4h72.2c2.8,0,4.9,0.1,6.3,0.3c1.4,0.2,3,0.8,4.9,1.7c3.3,1.7,4.9,6.5,4.9,14.3
			c0,8.6-2.3,13.6-6.8,15c-2.1,0.7-5.3,1.1-9.5,1.1H48.6v18.5h36.3c2.8,0,4.9,0.1,6.3,0.3c1.4,0.2,3,0.8,4.9,1.7
			c3.3,1.7,4.9,6.5,4.9,14.3c0,8.6-2.3,13.6-7,15c-2.1,0.7-5.3,1.1-9.5,1.1H48.6V322.5z"/>
		<path class="st5" d="M255.7,222.6c7.2,3.5,10.8,7.5,10.8,11.7c0,2-0.9,4.9-2.7,8.8l-50.6,102.6c-1.3,2.7-3.4,4.9-6.1,6.5
			c-2.8,1.6-5.6,2.5-8.5,2.5h-1.8c-3.1,0-6-0.8-8.7-2.5c-2.7-1.7-4.8-3.8-6.1-6.5l-50.6-102.6c-1.8-3.9-2.8-6.8-2.8-8.8
			c0-4.3,3.6-8.2,10.8-11.7c4-2.1,7.1-3.1,9.3-3.1c2.1,0,3.8,0.2,4.9,0.7c1.1,0.5,2.1,1.3,3.1,2.6c1.1,1.5,2.1,3.1,3,4.9
			c0.9,1.8,3.3,6.8,7.1,15.2c3.8,8.4,7.8,17.3,12.2,26.7c4.3,9.4,8.4,18.3,12.3,26.7c3.8,8.4,6,13,6.5,14l36.7-80.3
			c1-2.3,1.8-4.2,2.6-5.5c2.2-3.3,4.9-4.9,8.1-4.9C248.1,219.5,251.7,220.5,255.7,222.6z"/>
		<path class="st5" d="M309.1,322.5h56.4c2.8,0,4.9,0.1,6.3,0.3c1.4,0.2,3,0.8,4.9,1.7c3.3,1.7,4.9,6.5,4.9,14.3
			c0,8.6-2.3,13.6-6.8,15c-2.1,0.7-5.3,1.1-9.5,1.1h-72.6c-8.6,0-13.6-2.3-15-7c-0.7-2-1.1-5.1-1.1-9.3V236.7
			c0-6.2,1.2-10.5,3.5-12.7c2.3-2.3,6.7-3.4,13.2-3.4h72.2c2.8,0,4.9,0.1,6.3,0.3c1.4,0.2,3,0.8,4.9,1.7c3.3,1.7,4.9,6.5,4.9,14.3
			c0,8.6-2.3,13.6-6.8,15c-2.1,0.7-5.3,1.1-9.5,1.1h-56.3v18.5h36.3c2.8,0,4.9,0.1,6.3,0.3c1.4,0.2,3,0.8,4.9,1.7
			c3.3,1.7,4.9,6.5,4.9,14.3c0,8.6-2.3,13.6-7,15c-2.1,0.7-5.3,1.1-9.5,1.1h-35.9V322.5z"/>
		<path class="st5" d="M496.3,332.2c1.8,4.4,2.7,7.6,2.7,9.5c0,4.6-3.8,8.6-11.4,11.7c-3.9,1.7-7.1,2.6-9.4,2.6s-4.3-0.6-5.9-1.7
			c-1.5-1.2-2.7-2.4-3.4-3.6c-1.2-2.3-6-13.4-14.3-33.2l-5.7,0.4H426v20.7c0,2.8-0.1,4.9-0.3,6.3c-0.2,1.4-0.8,3-1.7,4.9
			c-1.7,3.3-6.5,4.9-14.3,4.9c-8.6,0-13.6-2.3-15-6.8c-0.7-2.1-1.1-5.3-1.1-9.5V236.7c0-2.8,0.1-4.9,0.3-6.3c0.2-1.4,0.8-3,1.7-4.9
			c1.7-3.3,6.5-4.9,14.3-4.9h39.6c10.8,0,21.2,3.9,31.3,11.7c4.9,3.8,8.9,8.9,12.1,15.4c3.2,6.5,4.8,13.7,4.8,21.6
			c0,13.8-4.6,25.2-13.7,34.1C486.6,309.9,490.7,319.5,496.3,332.2z M426,285.4h23.5c3.5,0,7.1-1.3,10.6-4c3.5-2.7,5.3-6.7,5.3-12.1
			c0-5.4-1.8-9.4-5.3-12.2c-3.5-2.7-7.2-4.1-11-4.1H426V285.4z"/>
		<path class="st5" d="M612.2,223.1c6,4.2,9,8.2,9,12.1c0,2.3-1.4,5.6-4.2,9.7l-39.6,59.2v35c0,2.8-0.1,4.9-0.3,6.3
			c-0.2,1.4-0.8,3-1.7,4.9c-1,1.8-2.6,3.1-4.9,3.8c-2.3,0.7-5.4,1.1-9.3,1.1c-3.9,0-7-0.4-9.3-1.1c-2.3-0.7-4-2-4.9-3.9
			c-1-1.9-1.6-3.5-1.7-4.9c-0.2-1.4-0.3-3.6-0.3-6.5v-34.6l-39.6-59.2c-2.8-4.2-4.2-7.4-4.2-9.7c0-3.9,2.7-7.7,8.1-11.3
			c5.4-3.6,9.2-5.4,11.5-5.4c2.3,0,4.2,0.5,5.5,1.5c2.1,1.3,4.3,3.8,6.6,7.5L561,273l28.4-45.5c2.3-3.7,4.3-6.1,6-7.2
			c1.7-1.2,3.7-1.7,6-1.7C603.7,218.6,607.3,220.1,612.2,223.1z"/>
		<path class="st5" d="M151.6,386.1c1,1.8,1.6,3.5,1.7,4.9c0.2,1.5,0.3,3.6,0.3,6.4v101.7c0,8.4-2.3,13.4-7,14.8
			c-2.3,0.7-5.3,1.1-8.8,1.1c-3.5,0-6.4-0.3-8.4-0.9c-2.1-0.6-3.7-1.3-4.8-2.2c-1.1-0.9-2-2.1-2.6-3.7c-0.6-2.1-0.9-5.3-0.9-9.5
			v-61.4c-3.1,3.8-7.5,9.8-13.4,18.1c-5.9,8.2-9.6,13.4-11.2,15.5c-1.6,2.1-2.7,3.5-3.3,4.3c-0.6,0.8-2.1,1.9-4.5,3.3
			c-2.4,1.4-4.9,2.1-7.7,2.1c-2.7,0-5.3-0.6-7.5-1.9c-2.3-1.3-3.9-2.5-4.9-3.8l-1.5-2c-2.4-3.1-7.3-9.6-14.5-19.5
			c-7.2-10-11.1-15.3-11.7-16v61.8c0,2.8-0.1,4.9-0.3,6.3c-0.2,1.4-0.8,3-1.7,4.7c-1.8,3.3-6.6,4.9-14.3,4.9
			c-7.5,0-12.1-1.6-13.9-4.9c-1-1.7-1.6-3.3-1.7-4.8s-0.3-3.7-0.3-6.6V397.1c0-2.8,0.1-4.9,0.3-6.3c0.2-1.4,0.8-3,1.7-4.9
			c1.8-3.2,6.6-4.8,14.3-4.8c3.3,0,6.1,0.4,8.5,1.2c2.4,0.8,3.9,1.6,4.7,2.5l1.1,1.1l41.6,54.6c20.8-27.5,34.6-45.6,41.6-54.4
			c2.1-3.3,7-4.9,14.8-4.9C145.2,381.2,149.9,382.8,151.6,386.1z"/>
		<path class="st5" d="M200.7,482.9h56.4c2.8,0,4.9,0.1,6.3,0.3c1.4,0.2,3,0.8,4.9,1.7c3.3,1.7,4.9,6.5,4.9,14.3
			c0,8.6-2.3,13.6-6.8,15c-2.1,0.7-5.3,1.1-9.5,1.1h-72.6c-8.6,0-13.6-2.3-15-7c-0.7-2-1.1-5.1-1.1-9.3V397.1
			c0-6.2,1.2-10.5,3.5-12.7c2.3-2.3,6.7-3.4,13.2-3.4h72.2c2.8,0,4.9,0.1,6.3,0.3c1.4,0.2,3,0.8,4.9,1.7c3.3,1.7,4.9,6.5,4.9,14.3
			c0,8.6-2.3,13.6-6.8,15c-2.1,0.7-5.3,1.1-9.5,1.1h-56.3v18.5H237c2.8,0,4.9,0.1,6.3,0.3c1.4,0.2,3,0.8,4.9,1.7
			c3.3,1.7,4.9,6.5,4.9,14.3c0,8.6-2.3,13.6-7,15c-2.1,0.7-5.3,1.1-9.5,1.1h-35.9V482.9z"/>
		<path class="st5" d="M388,492.6c1.8,4.4,2.7,7.6,2.7,9.5c0,4.6-3.8,8.6-11.4,11.7c-3.9,1.7-7.1,2.6-9.4,2.6s-4.3-0.6-5.9-1.7
			c-1.5-1.2-2.7-2.4-3.4-3.6c-1.2-2.3-6-13.4-14.3-33.2l-5.7,0.4h-23.1V499c0,2.8-0.1,4.9-0.3,6.3c-0.2,1.4-0.8,3-1.7,4.9
			c-1.7,3.3-6.5,4.9-14.3,4.9c-8.6,0-13.6-2.3-15-6.8c-0.7-2.1-1.1-5.3-1.1-9.5V397.1c0-2.8,0.1-4.9,0.3-6.3c0.2-1.4,0.8-3,1.7-4.9
			c1.7-3.3,6.5-4.9,14.3-4.9h39.6c10.8,0,21.2,3.9,31.3,11.7c4.9,3.8,8.9,8.9,12.1,15.4c3.2,6.5,4.8,13.7,4.8,21.6
			c0,13.8-4.6,25.2-13.7,34.1C378.3,470.3,382.4,479.9,388,492.6z M317.7,445.9h23.5c3.5,0,7.1-1.3,10.6-4c3.5-2.7,5.3-6.7,5.3-12.1
			c0-5.4-1.8-9.4-5.3-12.2c-3.5-2.7-7.2-4.1-11-4.1h-23.1V445.9z"/>
		<path class="st5" d="M503.7,492.6c1.8,4.4,2.7,7.6,2.7,9.5c0,4.6-3.8,8.6-11.4,11.7c-3.9,1.7-7.1,2.6-9.4,2.6s-4.3-0.6-5.9-1.7
			c-1.5-1.2-2.7-2.4-3.4-3.6c-1.2-2.3-6-13.4-14.3-33.2l-5.7,0.4h-23.1V499c0,2.8-0.1,4.9-0.3,6.3c-0.2,1.4-0.8,3-1.7,4.9
			c-1.7,3.3-6.5,4.9-14.3,4.9c-8.6,0-13.6-2.3-15-6.8c-0.7-2.1-1.1-5.3-1.1-9.5V397.1c0-2.8,0.1-4.9,0.3-6.3c0.2-1.4,0.8-3,1.7-4.9
			c1.7-3.3,6.5-4.9,14.3-4.9h39.6c10.8,0,21.2,3.9,31.3,11.7c4.9,3.8,8.9,8.9,12.1,15.4c3.2,6.5,4.8,13.7,4.8,21.6
			c0,13.8-4.6,25.2-13.7,34.1C493.9,470.3,498.1,479.9,503.7,492.6z M433.3,445.9h23.5c3.5,0,7.1-1.3,10.6-4
			c3.5-2.7,5.3-6.7,5.3-12.1c0-5.4-1.8-9.4-5.3-12.2c-3.5-2.7-7.2-4.1-11-4.1h-23.1V445.9z"/>
		<path class="st5" d="M619.5,383.6c6,4.2,9,8.2,9,12.1c0,2.3-1.4,5.6-4.2,9.7l-39.6,59.2v35c0,2.8-0.1,4.9-0.3,6.3
			c-0.2,1.4-0.8,3-1.7,4.9c-1,1.8-2.6,3.1-4.9,3.8c-2.3,0.7-5.4,1.1-9.3,1.1c-3.9,0-7-0.4-9.3-1.1c-2.3-0.7-4-2-4.9-3.9
			c-1-1.9-1.6-3.5-1.7-4.9c-0.2-1.4-0.3-3.6-0.3-6.5v-34.6l-39.6-59.2c-2.8-4.2-4.2-7.4-4.2-9.7c0-3.9,2.7-7.7,8.1-11.3
			c5.4-3.6,9.2-5.4,11.5-5.4c2.3,0,4.2,0.5,5.5,1.5c2.1,1.3,4.3,3.8,6.6,7.5l28.4,45.5l28.4-45.5c2.3-3.7,4.3-6.1,6-7.2
			c1.7-1.2,3.7-1.7,6-1.7C611,379,614.6,380.5,619.5,383.6z"/>
		<path class="st5" d="M22.1,541.2H124c3.9,0,6.8,0.5,8.6,1.4c1.8,0.9,3.1,2.4,3.7,4.3c0.6,2,0.9,4.5,0.9,7.7c0,3.2-0.3,5.7-0.9,7.6
			c-0.6,1.9-1.6,3.2-3.1,3.9c-2.2,1.1-5.3,1.6-9.3,1.6h-35V660c0,2.8-0.1,4.9-0.3,6.2c-0.2,1.3-0.7,2.9-1.6,4.7
			c-0.9,1.8-2.5,3-4.9,3.8c-2.3,0.7-5.4,1.1-9.2,1.1c-3.8,0-6.8-0.4-9.1-1.1c-2.3-0.7-3.8-2-4.8-3.8c-0.9-1.8-1.5-3.4-1.6-4.8
			c-0.2-1.4-0.3-3.5-0.3-6.3v-92H21.9c-3.9,0-6.8-0.5-8.6-1.4c-1.8-0.9-3.1-2.4-3.7-4.3c-0.6-2-0.9-4.5-0.9-7.7
			c0-3.2,0.3-5.7,0.9-7.6c0.6-1.9,1.6-3.2,3.1-3.9C14.9,541.8,18,541.2,22.1,541.2z"/>
		<path class="st5" d="M230.3,546.4c1-1.8,2.6-3.1,4.9-3.8c2.3-0.7,5.3-1.1,8.8-1.1c3.5,0,6.4,0.3,8.4,0.9c2.1,0.6,3.7,1.3,4.8,2.2
			c1.1,0.9,2,2.1,2.6,3.7c0.6,2.1,0.9,5.3,0.9,9.5v101.7c0,2.8-0.1,4.9-0.3,6.3c-0.2,1.4-0.8,3-1.7,4.9c-1.7,3.3-6.5,4.9-14.3,4.9
			c-8.6,0-13.6-2.3-15-6.8c-0.7-2.1-1.1-5.3-1.1-9.5v-37.2h-48.6v37.4c0,2.8-0.1,4.9-0.3,6.3c-0.2,1.4-0.8,3-1.7,4.9
			c-1.7,3.3-6.5,4.9-14.3,4.9c-8.6,0-13.6-2.3-15-6.8c-0.7-2.1-1.1-5.3-1.1-9.5V557.5c0-2.8,0.1-4.9,0.3-6.3c0.2-1.4,0.8-3,1.7-4.9
			c1.7-3.3,6.5-4.9,14.3-4.9c8.5,0,13.6,2.3,15.2,6.8c0.6,2.1,0.9,5.3,0.9,9.5v37.4h48.6v-37.6c0-2.8,0.1-4.9,0.3-6.3
			C228.7,549.8,229.3,548.2,230.3,546.4z"/>
		<path class="st5" d="M275.3,557.5c0-2.8,0.1-4.9,0.3-6.3c0.2-1.4,0.8-3,1.7-4.9c1.7-3.3,6.5-4.9,14.3-4.9c8.5,0,13.6,2.3,15.2,6.8
			c0.6,2.1,0.9,5.3,0.9,9.5v101.9c0,2.9-0.1,5.1-0.3,6.4c-0.2,1.3-0.8,2.9-1.7,4.8c-1.7,3.3-6.5,4.9-14.3,4.9c-8.6,0-13.6-2.3-15-7
			c-0.7-2-1.1-5.1-1.1-9.3V557.5z"/>
		<path class="st5" d="M409.2,547c1.2-2.1,2.9-3.6,5.2-4.3c2.3-0.7,5.2-1.1,8.7-1.1s6.3,0.3,8.4,0.9c2.1,0.6,3.7,1.3,4.8,2.2
			c1,0.9,1.8,2.1,2.3,3.8c0.7,2,1.1,5.1,1.1,9.3v101.7c0,2.9-0.1,5.1-0.3,6.4c-0.2,1.3-0.8,2.9-1.7,4.8c-1.7,3.3-6.5,4.9-14.3,4.9
			c-4.8,0-8.1-0.4-9.9-1.1s-3.4-1.9-4.6-3.5c-27.5-36.7-45.6-60.6-54.2-71.8v60.3c0,2.9-0.1,5.1-0.3,6.4c-0.2,1.3-0.8,2.9-1.7,4.8
			c-1.7,3.3-6.5,4.9-14.3,4.9c-7.6,0-12.2-1.6-13.9-4.9c-1-1.8-1.6-3.5-1.7-4.9c-0.2-1.5-0.3-3.6-0.3-6.4V557.2
			c0-4.6,0.6-8,1.7-10.2c1.2-2.1,2.9-3.6,5.2-4.3c2.3-0.7,5.3-1.1,9-1.1c3.7,0,6.6,0.3,8.7,1c2.1,0.7,3.6,1.4,4.5,2.3
			c0.5,0.4,1.9,2,4.2,4.8c25.8,35.1,43,58.2,51.7,69.5v-61.9C407.5,552.5,408,549.1,409.2,547z"/>
		<path class="st5" d="M524.4,594.8h32.3c6.6,0.2,10.6,2,12.1,5.1c1.2,2.3,1.8,5.7,1.8,10.3v40.3c0,3.9-1.7,7.6-5.1,11.2
			c-10.3,10.6-25.7,15.9-46.2,15.9c-18.2,0-34-6.9-47.5-20.6c-13.4-13.7-20.2-30.3-20.2-49.8s6.8-35.6,20.5-48.7
			c13.7-13,29.8-19.5,48.4-19.5c14.4,0,28,4.8,40.9,14.3c3.3,2.4,4.9,5.2,4.9,8.2c0,3-1.4,6.4-4.2,10.4c-4.8,6.5-9.1,9.7-13,9.7
			c-2.3,0-6-1.7-11.2-5c-5.1-3.4-11.2-5-18.3-5c-9.3,0-17.5,3.3-24.7,9.8c-7.2,6.5-10.8,15.1-10.8,25.7c0,10.6,3.7,19.5,11,26.9
			c7.3,7.4,15.6,11.1,24.9,11.1c6.7,0,12.8-1.1,18.1-3.3v-20h-14.5c-3.8,0-6.5-0.5-8.1-1.5c-1.6-1-2.6-2.4-3.1-4.3
			c-0.5-1.9-0.7-4.5-0.7-7.7c0-3.2,0.3-5.8,0.8-7.8c0.5-2,1.6-3.3,3-4C517.8,595.3,520.7,594.8,524.4,594.8z"/>
		<path class="st5" d="M587.1,647.8c1.2-2.4,3.1-4,5.6-4.9c2.5-0.9,6.4-1.3,11.7-1.3c5.3,0,9.2,1.2,11.5,3.5c2.4,2.3,3.6,6,3.6,11
			v2.9c0,2.9-0.1,5.1-0.3,6.5c-0.2,1.4-0.8,3.1-1.7,5c-2,3.5-6.6,5.3-14,5.3c-7.4,0-12.3-1.2-14.7-3.6c-2.4-2.4-3.6-7-3.6-13.8
			C585.2,653.8,585.8,650.2,587.1,647.8z M611.6,626.5c-2.3,0.6-5.4,0.9-9.3,0.9c-3.9,0-7-0.3-9.3-0.9c-2.3-0.6-3.9-1.7-4.9-3.3
			c-0.9-1.6-1.5-3-1.6-4.2c-0.2-1.2-0.3-3.1-0.3-5.7v-58.1c0-2.6,0.1-4.5,0.3-5.8c0.2-1.3,0.8-2.7,1.7-4.3c1-1.6,2.6-2.7,4.9-3.4
			c2.3-0.7,5.4-1,9.3-1c3.9,0,7,0.3,9.3,1c2.3,0.7,3.9,1.8,4.9,3.5c0.9,1.6,1.5,3.1,1.6,4.4c0.2,1.3,0.3,3.2,0.3,5.8v58.1
			c0,2.6-0.1,4.5-0.3,5.7c-0.2,1.2-0.8,2.6-1.7,4.1C615.6,624.8,613.9,625.8,611.6,626.5z"/>
	</g>
</g>
</svg>
