<!-- Generator: Adobe Illustrator 24.3.0, SVG Export Plug-In  -->
<svg version="1.1" xmlns="http://www.w3.org/2000/svg" xmlns:xlink="http://www.w3.org/1999/xlink" x="0px" y="0px" width="647.9px"
	 height="453.4px" viewBox="0 0 647.9 453.4" style="overflow:visible;enable-background:new 0 0 647.9 453.4;"
	 xml:space="preserve">
<style type="text/css">
	.st0{fill:#5F9B61;}
	.st1{fill:none;stroke:#2B2D2B;stroke-width:6;}
</style>
<defs>
</defs>
<path class="st0" d="M358.2,322.8l50.4,104.1c2.1,4.2,3.2,7.4,3.2,9.5c0,4.5-3.6,8.5-10.8,12.1c-4.2,2.1-7.6,3.2-10,3.2
	c-2.4,0-4.4-0.6-6-1.7c-1.6-1.1-2.7-2.3-3.4-3.5c-0.7-1.2-1.6-3.1-2.9-5.6l-9.7-20.1h-51.7l-9.7,20.1c-1.2,2.5-2.2,4.3-2.9,5.4
	c-0.7,1.1-1.8,2.3-3.4,3.5c-1.6,1.2-3.5,1.8-6,1.8c-2.4,0-5.8-1.1-10-3.2c-7.2-3.5-10.8-7.5-10.8-11.9c0-2.1,1.1-5.3,3.2-9.5
	l50.4-104.2c1.4-2.9,3.5-5.2,6.2-6.9c2.8-1.7,5.7-2.6,8.9-2.6C350,313.1,355,316.3,358.2,322.8z M343.1,367.6l-12.3,25.5h24.8
	L343.1,367.6z"/>
<g>
	<path class="st0" d="M18.4,432.7c-3.2-3.9-4.8-7.4-4.8-10.5c0-3.1,2.6-7.2,7.9-12.4c3.1-2.9,6.3-4.4,9.7-4.4
		c3.4,0,8.2,3.1,14.3,9.2c1.7,2.1,4.2,4.1,7.3,6c3.2,1.9,6.1,2.8,8.8,2.8c11.4,0,17-4.6,17-13.9c0-2.8-1.6-5.2-4.7-7.1
		c-3.1-1.9-7-3.3-11.6-4.1c-4.6-0.9-9.7-2.2-15-4.1c-5.4-1.9-10.4-4.1-15-6.7c-4.6-2.6-8.5-6.6-11.6-12.2
		c-3.1-5.6-4.7-12.2-4.7-20.1c0-10.7,4-20.1,12-28.1c8-8,18.9-12,32.7-12c7.3,0,14,0.9,20.1,2.8c6,1.9,10.2,3.8,12.6,5.8l4.6,3.5
		c3.8,3.5,5.7,6.5,5.7,9c0,2.4-1.5,5.8-4.4,10.1c-4.2,6.1-8.4,9.2-12.8,9.2c-2.6,0-5.7-1.2-9.5-3.7c-0.4-0.2-1.1-0.9-2.1-1.8
		c-1-1-2-1.8-2.8-2.4c-2.6-1.6-5.8-2.4-9.8-2.4c-4,0-7.3,0.9-9.9,2.8c-2.6,1.9-3.9,4.5-3.9,7.9c0,3.4,1.6,6.1,4.7,8.2
		c3.1,2.1,7,3.5,11.6,4.2c4.6,0.7,9.7,1.9,15.2,3.4c5.5,1.5,10.6,3.4,15.2,5.6c4.6,2.2,8.5,6,11.6,11.5c3.1,5.4,4.7,12.1,4.7,20.1
		c0,7.9-1.6,14.9-4.8,21c-3.2,6-7.3,10.7-12.5,14c-9.9,6.5-20.5,9.7-31.7,9.7c-5.7,0-11.2-0.7-16.3-2.1c-5.1-1.4-9.3-3.1-12.5-5.2
		c-6.5-3.9-11-7.7-13.6-11.4L18.4,432.7z"/>
	<path class="st0" d="M266,322.3c1,1.8,1.6,3.5,1.7,4.9c0.2,1.5,0.3,3.6,0.3,6.4v101.7c0,8.4-2.3,13.4-7,14.8
		c-2.3,0.7-5.3,1.1-8.8,1.1c-3.5,0-6.4-0.3-8.4-0.9c-2.1-0.6-3.7-1.3-4.8-2.2c-1.1-0.9-2-2.1-2.6-3.7c-0.6-2.1-0.9-5.3-0.9-9.5
		v-61.4c-3.1,3.8-7.5,9.8-13.4,18.1s-9.6,13.4-11.2,15.5c-1.6,2.1-2.7,3.5-3.3,4.3c-0.6,0.8-2.1,1.9-4.5,3.3
		c-2.4,1.4-4.9,2.1-7.7,2.1c-2.8,0-5.3-0.6-7.5-1.9c-2.3-1.3-3.9-2.5-4.9-3.8l-1.5-2c-2.4-3.1-7.3-9.6-14.5-19.5
		c-7.2-10-11.1-15.3-11.7-16v61.8c0,2.8-0.1,4.9-0.3,6.3c-0.2,1.4-0.8,3-1.7,4.7c-1.8,3.3-6.6,4.9-14.3,4.9
		c-7.5,0-12.1-1.7-13.9-4.9c-1-1.7-1.6-3.3-1.7-4.8c-0.2-1.5-0.3-3.7-0.3-6.6V333.3c0-2.8,0.1-4.9,0.3-6.3c0.2-1.4,0.8-3,1.7-4.9
		c1.8-3.2,6.6-4.8,14.3-4.8c3.3,0,6.1,0.4,8.5,1.2c2.4,0.8,3.9,1.6,4.7,2.5l1.1,1.1l41.6,54.6c20.8-27.5,34.6-45.6,41.6-54.4
		c2.1-3.3,7-4.9,14.8-4.9C259.5,317.4,264.2,319,266,322.3z"/>
	<path class="st0" d="M419.4,432.7c-3.2-3.9-4.8-7.4-4.8-10.5c0-3.1,2.6-7.2,7.9-12.4c3.1-2.9,6.3-4.4,9.7-4.4
		c3.4,0,8.2,3.1,14.3,9.2c1.7,2.1,4.2,4.1,7.3,6c3.2,1.9,6.1,2.8,8.8,2.8c11.4,0,17-4.6,17-13.9c0-2.8-1.6-5.2-4.7-7.1
		c-3.1-1.9-7-3.3-11.6-4.1c-4.6-0.9-9.7-2.2-15-4.1c-5.4-1.9-10.4-4.1-15-6.7c-4.6-2.6-8.5-6.6-11.6-12.2
		c-3.1-5.6-4.7-12.2-4.7-20.1c0-10.7,4-20.1,12-28.1c8-8,18.9-12,32.7-12c7.3,0,14,0.9,20.1,2.8c6,1.9,10.2,3.8,12.6,5.8l4.6,3.5
		c3.8,3.5,5.7,6.5,5.7,9c0,2.4-1.5,5.8-4.4,10.1c-4.2,6.1-8.4,9.2-12.8,9.2c-2.6,0-5.7-1.2-9.5-3.7c-0.4-0.2-1.1-0.9-2.1-1.8
		c-1-1-2-1.8-2.8-2.4c-2.6-1.6-5.8-2.4-9.8-2.4c-4,0-7.3,0.9-9.9,2.8c-2.6,1.9-3.9,4.5-3.9,7.9c0,3.4,1.6,6.1,4.7,8.2
		c3.1,2.1,7,3.5,11.6,4.2c4.6,0.7,9.7,1.9,15.2,3.4c5.5,1.5,10.6,3.4,15.2,5.6c4.6,2.2,8.5,6,11.6,11.5c3.1,5.4,4.7,12.1,4.7,20.1
		c0,7.9-1.6,14.9-4.8,21c-3.2,6-7.3,10.7-12.5,14c-9.9,6.5-20.5,9.7-31.7,9.7c-5.7,0-11.2-0.7-16.3-2.1c-5.1-1.4-9.3-3.1-12.5-5.2
		c-6.5-3.9-11-7.7-13.6-11.4L419.4,432.7z"/>
	<path class="st0" d="M607.2,322.1c1-1.8,2.6-3.1,4.9-3.8c2.3-0.7,5.3-1.1,8.8-1.1c3.5,0,6.4,0.3,8.4,0.9c2.1,0.6,3.7,1.3,4.8,2.2
		c1.1,0.9,2,2.1,2.6,3.7c0.6,2.1,0.9,5.3,0.9,9.5v101.7c0,2.8-0.1,4.9-0.3,6.3c-0.2,1.4-0.8,3-1.7,4.9c-1.7,3.3-6.5,4.9-14.3,4.9
		c-8.6,0-13.6-2.3-15-6.8c-0.7-2.1-1.1-5.3-1.1-9.5v-37.2h-48.6v37.4c0,2.8-0.1,4.9-0.3,6.3c-0.2,1.4-0.8,3-1.7,4.9
		c-1.7,3.3-6.5,4.9-14.3,4.9c-8.6,0-13.6-2.3-15-6.8c-0.7-2.1-1.1-5.3-1.1-9.5V333.3c0-2.8,0.1-4.9,0.3-6.3c0.2-1.4,0.8-3,1.7-4.9
		c1.7-3.3,6.5-4.9,14.3-4.9c8.6,0,13.6,2.3,15.2,6.8c0.6,2.1,0.9,5.3,0.9,9.5v37.4h48.6v-37.6c0-2.8,0.1-4.9,0.3-6.3
		C605.6,325.6,606.2,324,607.2,322.1z"/>
</g>
<g>
	<path class="st0" d="M101,18.5c0.9-1.7,2.4-2.9,4.6-3.6c2.1-0.7,4.9-1,8.1-1c3.3,0,5.9,0.3,7.8,0.8c1.9,0.6,3.4,1.2,4.4,2
		c1,0.8,1.8,1.9,2.4,3.4c0.6,1.9,0.8,4.9,0.8,8.8v94c0,2.6-0.1,4.5-0.3,5.8c-0.2,1.3-0.7,2.8-1.6,4.5c-1.6,3-6,4.6-13.2,4.6
		c-7.9,0-12.5-2.1-13.9-6.3c-0.7-1.9-1-4.9-1-8.8V88.5H54.2V123c0,2.6-0.1,4.5-0.3,5.8c-0.2,1.3-0.7,2.8-1.6,4.5
		c-1.6,3-6,4.6-13.2,4.6c-7.9,0-12.5-2.1-13.9-6.3c-0.7-1.9-1-4.9-1-8.8v-94c0-2.6,0.1-4.5,0.3-5.8c0.2-1.3,0.7-2.8,1.6-4.5
		c1.6-3,6-4.6,13.2-4.6c7.9,0,12.6,2.1,14.1,6.3c0.6,1.9,0.8,4.9,0.8,8.8v34.6h44.9V28.8c0-2.6,0.1-4.5,0.3-5.8
		C99.6,21.7,100.1,20.2,101,18.5z"/>
	<path class="st0" d="M214.4,22.7l45.7,94.5c1.9,3.8,2.9,6.7,2.9,8.6c0,4.1-3.3,7.7-9.8,11c-3.8,1.9-6.9,2.9-9.1,2.9
		c-2.2,0-4-0.5-5.4-1.5c-1.4-1-2.4-2.1-3-3.2c-0.6-1.1-1.5-2.8-2.6-5.1l-8.8-18.3h-46.9l-8.8,18.3c-1.1,2.3-2,3.9-2.6,4.9
		c-0.6,1-1.6,2.1-3,3.1c-1.4,1.1-3.2,1.6-5.4,1.6c-2.2,0-5.2-1-9.1-2.9c-6.6-3.2-9.8-6.8-9.8-10.8c0-1.9,1-4.8,2.9-8.6l45.7-94.7
		c1.2-2.6,3.1-4.7,5.7-6.3c2.5-1.6,5.2-2.4,8-2.4C206.9,13.9,211.4,16.9,214.4,22.7z M200.6,63.4l-11.2,23.2H212L200.6,63.4z"/>
	<path class="st0" d="M360.3,15.8c6.7,3.3,10,6.9,10,10.8c0,1.8-0.8,4.5-2.5,8.1l-46.8,94.9c-1.2,2.5-3.1,4.5-5.7,6
		c-2.5,1.5-5.2,2.3-7.9,2.3h-1.7c-2.8,0-5.5-0.8-8-2.3c-2.5-1.5-4.4-3.5-5.7-6l-46.8-94.9c-1.7-3.6-2.5-6.3-2.5-8.1
		c0-4,3.3-7.6,10-10.8c3.7-1.9,6.6-2.9,8.6-2.9c2,0,3.5,0.2,4.5,0.7c1,0.5,2,1.2,2.9,2.4c1,1.4,1.9,2.9,2.8,4.5
		c0.8,1.6,3,6.3,6.5,14.1c3.5,7.7,7.3,16,11.3,24.7c4,8.7,7.8,16.9,11.4,24.7c3.6,7.7,5.6,12.1,6,13l33.9-74.2
		c0.9-2.1,1.7-3.8,2.4-5.1c2-3,4.5-4.6,7.5-4.6C353.2,12.9,356.5,13.9,360.3,15.8z"/>
	<path class="st0" d="M409.6,108.1h52.2c2.6,0,4.5,0.1,5.8,0.3c1.3,0.2,2.8,0.7,4.5,1.6c3,1.6,4.6,6,4.6,13.2
		c0,7.9-2.1,12.5-6.3,13.9c-1.9,0.7-4.9,1-8.8,1h-67.1c-7.9,0-12.5-2.1-13.9-6.4c-0.7-1.8-1-4.7-1-8.6V28.8c0-5.8,1.1-9.7,3.2-11.8
		c2.1-2.1,6.2-3.1,12.2-3.1h66.8c2.6,0,4.5,0.1,5.8,0.3c1.3,0.2,2.8,0.7,4.5,1.6c3,1.6,4.6,6,4.6,13.2c0,7.9-2.1,12.5-6.3,13.9
		c-1.9,0.7-4.9,1-8.8,1h-52V61h33.5c2.6,0,4.5,0.1,5.8,0.3c1.3,0.2,2.8,0.7,4.5,1.6c3,1.6,4.6,6,4.6,13.2c0,7.9-2.1,12.5-6.4,13.9
		c-1.9,0.7-4.9,1-8.8,1h-33.2V108.1z"/>
	<path class="st0" d="M595.4,22.7l45.7,94.5c1.9,3.8,2.9,6.7,2.9,8.6c0,4.1-3.3,7.7-9.8,11c-3.8,1.9-6.9,2.9-9.1,2.9
		c-2.2,0-4-0.5-5.4-1.5c-1.4-1-2.4-2.1-3-3.2c-0.6-1.1-1.5-2.8-2.6-5.1l-8.8-18.3h-46.9l-8.8,18.3c-1.1,2.3-2,3.9-2.6,4.9
		c-0.6,1-1.6,2.1-3,3.1c-1.4,1.1-3.2,1.6-5.4,1.6c-2.2,0-5.2-1-9.1-2.9c-6.6-3.2-9.8-6.8-9.8-10.8c0-1.9,1-4.8,2.9-8.6l45.7-94.7
		c1.2-2.6,3.1-4.7,5.7-6.3c2.5-1.6,5.2-2.4,8-2.4C588,13.9,592.5,16.9,595.4,22.7z M581.7,63.4l-11.2,23.2h22.5L581.7,63.4z"/>
	<path class="st0" d="M87.4,174.5c0.8-1.5,2.1-2.5,4-3.1c1.9-0.6,4.3-0.9,7.1-0.9c2.9,0,5.2,0.2,6.8,0.7c1.7,0.5,3,1.1,3.9,1.8
		c0.9,0.7,1.6,1.7,2.1,3c0.5,1.7,0.7,4.3,0.7,7.7v82.6c0,2.3-0.1,4-0.2,5.1c-0.1,1.1-0.6,2.5-1.4,3.9c-1.4,2.7-5.3,4-11.6,4
		c-6.9,0-11-1.8-12.2-5.5c-0.6-1.7-0.9-4.3-0.9-7.7V236H46.3v30.4c0,2.3-0.1,4-0.2,5.1c-0.1,1.1-0.6,2.5-1.4,3.9
		c-1.4,2.7-5.3,4-11.6,4c-6.9,0-11-1.8-12.2-5.5c-0.6-1.7-0.9-4.3-0.9-7.7v-82.6c0-2.3,0.1-4,0.2-5.1c0.1-1.1,0.6-2.5,1.4-3.9
		c1.4-2.7,5.3-4,11.6-4c6.9,0,11.1,1.8,12.4,5.5c0.5,1.7,0.7,4.3,0.7,7.7v30.4h39.5v-30.5c0-2.3,0.1-4,0.2-5.1
		C86.1,177.3,86.6,176,87.4,174.5z"/>
	<path class="st0" d="M175.2,169.1c14.7,0,27.4,5.3,38.3,15.9c10.8,10.6,16.2,23.8,16.2,39.5c0,15.7-5.2,29.1-15.5,40.2
		c-10.3,11.1-23,16.6-38.1,16.6c-15.1,0-27.9-5.5-38.5-16.4c-10.6-10.9-15.9-23.9-15.9-39c0-8.2,1.5-16,4.5-23.1
		c3-7.2,6.9-13.2,11.9-18.1c5-4.9,10.7-8.7,17.1-11.5C161.7,170.5,168.4,169.1,175.2,169.1z M148.1,225.2c0,8.8,2.9,16,8.6,21.5
		c5.7,5.5,12.1,8.3,19.1,8.3c7,0,13.4-2.7,19.1-8c5.7-5.4,8.5-12.6,8.5-21.6c0-9-2.9-16.3-8.6-21.7c-5.7-5.5-12.1-8.2-19.1-8.2
		c-7,0-13.4,2.8-19.1,8.3C150.9,209.2,148.1,216.4,148.1,225.2z"/>
	<path class="st0" d="M265.7,257.6h40.5c3.3,0,5.7,0.4,7.1,1.1c1.5,0.7,2.5,1.9,3,3.5c0.5,1.6,0.7,3.7,0.7,6.3
		c0,2.6-0.2,4.7-0.7,6.3c-0.5,1.6-1.3,2.7-2.5,3.3c-1.9,1-4.5,1.5-7.7,1.5h-53.6c-6.9,0-11-1.9-12.2-5.7c-0.6-1.6-0.9-4.1-0.9-7.6
		v-82.8c0-2.3,0.1-4,0.2-5.1c0.1-1.1,0.6-2.5,1.4-3.9c1.4-2.7,5.3-4,11.6-4c6.9,0,11.1,1.8,12.4,5.5c0.5,1.7,0.7,4.3,0.7,7.7V257.6z
		"/>
	<path class="st0" d="M326.8,183.6c0-2.3,0.1-4,0.2-5.1c0.1-1.1,0.6-2.5,1.4-3.9c1.4-2.7,5.3-4,11.6-4c6.9,0,11.1,1.8,12.4,5.5
		c0.5,1.7,0.7,4.3,0.7,7.7v82.8c0,2.4-0.1,4.1-0.2,5.2c-0.1,1.1-0.6,2.4-1.4,3.9c-1.4,2.7-5.3,4-11.6,4c-6.9,0-11-1.9-12.2-5.7
		c-0.6-1.6-0.9-4.1-0.9-7.6V183.6z"/>
	<path class="st0" d="M378.3,170.3l27.5,0.1c14.4,0,27,5.2,38,15.6c10.9,10.4,16.4,23.1,16.4,38.3c0,15.1-5.3,28.1-16,38.9
		c-10.7,10.8-23.6,16.2-38.8,16.2h-27.2c-6.1,0-9.8-1.2-11.3-3.7c-1.2-2.1-1.8-5.3-1.8-9.5v-82.8c0-2.4,0.1-4.1,0.2-5.2
		c0.1-1.1,0.6-2.4,1.4-3.9C368,171.7,371.9,170.3,378.3,170.3z M425.2,245.1c5.8-5.3,8.6-12,8.6-20c0-8-2.8-14.8-8.4-20.2
		c-5.6-5.4-12.2-8.1-19.7-8.1h-14.3v56.3h14.4C412.9,253.1,419.4,250.4,425.2,245.1z"/>
	<path class="st0" d="M525.3,178.2l40.2,83.1c1.7,3.4,2.5,5.9,2.5,7.6c0,3.6-2.9,6.8-8.6,9.7c-3.4,1.7-6,2.5-8,2.5
		c-1.9,0-3.5-0.4-4.8-1.3c-1.2-0.9-2.1-1.8-2.7-2.8c-0.5-1-1.3-2.5-2.3-4.5l-7.7-16.1h-41.2l-7.7,16.1c-1,2-1.8,3.4-2.3,4.3
		c-0.5,0.9-1.4,1.8-2.7,2.8c-1.2,0.9-2.8,1.4-4.8,1.4s-4.6-0.8-8-2.5c-5.8-2.8-8.6-6-8.6-9.5c0-1.7,0.8-4.2,2.5-7.6l40.2-83.2
		c1.1-2.3,2.8-4.1,5-5.5c2.2-1.4,4.6-2.1,7.1-2.1C518.8,170.5,522.8,173,525.3,178.2z M513.3,213.9l-9.8,20.4h19.8L513.3,213.9z"/>
	<path class="st0" d="M640.6,172.5c4.9,3.4,7.3,6.7,7.3,9.8c0,1.9-1.1,4.5-3.4,7.9l-32.2,48.1v28.4c0,2.3-0.1,4-0.2,5.1
		c-0.1,1.1-0.6,2.5-1.4,3.9c-0.8,1.5-2.1,2.5-4,3.1c-1.9,0.6-4.4,0.9-7.6,0.9c-3.2,0-5.7-0.3-7.6-0.9c-1.9-0.6-3.2-1.7-4-3.2
		c-0.8-1.5-1.3-2.9-1.4-4c-0.1-1.1-0.2-2.9-0.2-5.3v-28.1l-32.2-48.1c-2.3-3.4-3.4-6-3.4-7.9c0-3.2,2.2-6.2,6.5-9.2
		c4.4-2.9,7.5-4.4,9.4-4.4c1.9,0,3.4,0.4,4.5,1.2c1.7,1.1,3.5,3.1,5.4,6.1L599,213l23.1-36.9c1.9-3,3.5-4.9,4.9-5.9
		c1.4-0.9,3-1.4,4.8-1.4C633.7,168.8,636.6,170.1,640.6,172.5z"/>
</g>
<g>
	<path class="st1" d="M89.1,8.6C90,6.9,91.6,5.7,93.7,5c2.1-0.7,4.9-1,8.1-1c3.3,0,5.9,0.3,7.8,0.8c1.9,0.6,3.4,1.2,4.4,2
		c1,0.8,1.8,1.9,2.4,3.4c0.6,1.9,0.8,4.9,0.8,8.8v94c0,2.6-0.1,4.5-0.3,5.8c-0.2,1.3-0.7,2.8-1.6,4.5c-1.6,3-6,4.6-13.2,4.6
		c-7.9,0-12.5-2.1-13.9-6.3c-0.7-1.9-1-4.9-1-8.8V78.6H42.4v34.6c0,2.6-0.1,4.5-0.3,5.8c-0.2,1.3-0.7,2.8-1.6,4.5
		c-1.6,3-6,4.6-13.2,4.6c-7.9,0-12.5-2.1-13.9-6.3c-0.7-1.9-1-4.9-1-8.8v-94c0-2.6,0.1-4.5,0.3-5.8c0.2-1.3,0.7-2.8,1.6-4.5
		c1.6-3,6-4.6,13.2-4.6c7.9,0,12.6,2.1,14.1,6.3c0.6,1.9,0.8,4.9,0.8,8.8v34.6h44.9V18.9c0-2.6,0.1-4.5,0.3-5.8
		C87.7,11.8,88.2,10.3,89.1,8.6z"/>
	<path class="st1" d="M202.5,12.8l45.7,94.5c1.9,3.8,2.9,6.7,2.9,8.6c0,4.1-3.3,7.7-9.8,11c-3.8,1.9-6.9,2.9-9.1,2.9
		c-2.2,0-4-0.5-5.4-1.5c-1.4-1-2.4-2.1-3-3.2c-0.6-1.1-1.5-2.8-2.6-5.1l-8.8-18.3h-46.9l-8.8,18.3c-1.1,2.3-2,3.9-2.6,4.9
		c-0.6,1-1.6,2.1-3,3.1c-1.4,1.1-3.2,1.6-5.4,1.6c-2.2,0-5.2-1-9.1-2.9c-6.6-3.2-9.8-6.8-9.8-10.8c0-1.9,1-4.8,2.9-8.6l45.7-94.7
		c1.2-2.6,3.1-4.7,5.7-6.3c2.5-1.6,5.2-2.4,8-2.4C195,4,199.5,7,202.5,12.8z M188.8,53.5l-11.2,23.2h22.5L188.8,53.5z"/>
	<path class="st1" d="M348.4,5.9c6.7,3.3,10,6.9,10,10.8c0,1.8-0.8,4.5-2.5,8.1l-46.8,94.9c-1.2,2.5-3.1,4.5-5.7,6
		c-2.5,1.5-5.2,2.3-7.9,2.3h-1.7c-2.8,0-5.5-0.8-8-2.3c-2.5-1.5-4.4-3.5-5.7-6l-46.8-94.9c-1.7-3.6-2.5-6.3-2.5-8.1
		c0-4,3.3-7.6,10-10.8c3.7-1.9,6.6-2.9,8.6-2.9c2,0,3.5,0.2,4.5,0.7c1,0.5,2,1.2,2.9,2.4c1,1.4,1.9,2.9,2.8,4.5
		c0.8,1.6,3,6.3,6.5,14.1c3.5,7.7,7.3,16,11.3,24.7c4,8.7,7.8,16.9,11.4,24.7c3.6,7.7,5.6,12.1,6,13l33.9-74.2
		c0.9-2.1,1.7-3.8,2.4-5.1c2-3,4.5-4.6,7.5-4.6C341.3,3,344.6,4,348.4,5.9z"/>
	<path class="st1" d="M397.7,98.2h52.2c2.6,0,4.5,0.1,5.8,0.3c1.3,0.2,2.8,0.7,4.5,1.6c3,1.6,4.6,6,4.6,13.2
		c0,7.9-2.1,12.5-6.3,13.9c-1.9,0.7-4.9,1-8.8,1h-67.1c-7.9,0-12.5-2.1-13.9-6.4c-0.7-1.8-1-4.7-1-8.6V18.9c0-5.8,1.1-9.7,3.2-11.8
		C373,5.1,377.1,4,383.1,4h66.8c2.6,0,4.5,0.1,5.8,0.3c1.3,0.2,2.8,0.7,4.5,1.6c3,1.6,4.6,6,4.6,13.2c0,7.9-2.1,12.5-6.3,13.9
		c-1.9,0.7-4.9,1-8.8,1h-52v17.1h33.5c2.6,0,4.5,0.1,5.8,0.3c1.3,0.2,2.8,0.7,4.5,1.6c3,1.6,4.6,6,4.6,13.2c0,7.9-2.1,12.5-6.4,13.9
		c-1.9,0.7-4.9,1-8.8,1h-33.2V98.2z"/>
	<path class="st1" d="M583.5,12.8l45.7,94.5c1.9,3.8,2.9,6.7,2.9,8.6c0,4.1-3.3,7.7-9.8,11c-3.8,1.9-6.9,2.9-9.1,2.9
		c-2.2,0-4-0.5-5.4-1.5c-1.4-1-2.4-2.1-3-3.2c-0.6-1.1-1.5-2.8-2.6-5.1l-8.8-18.3h-46.9l-8.8,18.3c-1.1,2.3-2,3.9-2.6,4.9
		c-0.6,1-1.6,2.1-3,3.1c-1.4,1.1-3.2,1.6-5.4,1.6c-2.2,0-5.2-1-9.1-2.9c-6.6-3.2-9.8-6.8-9.8-10.8c0-1.9,1-4.8,2.9-8.6l45.7-94.7
		c1.2-2.6,3.1-4.7,5.7-6.3c2.5-1.6,5.2-2.4,8-2.4C576.1,4,580.6,7,583.5,12.8z M569.8,53.5l-11.2,23.2h22.5L569.8,53.5z"/>
	<path class="st1" d="M75.5,164.6c0.8-1.5,2.1-2.5,4-3.1c1.9-0.6,4.3-0.9,7.1-0.9c2.9,0,5.2,0.2,6.8,0.7c1.7,0.5,3,1.1,3.9,1.8
		c0.9,0.7,1.6,1.7,2.1,3c0.5,1.7,0.7,4.3,0.7,7.7v82.6c0,2.3-0.1,4-0.2,5.1c-0.1,1.1-0.6,2.5-1.4,3.9c-1.4,2.7-5.3,4-11.6,4
		c-6.9,0-11-1.8-12.2-5.5c-0.6-1.7-0.9-4.3-0.9-7.7v-30.2H34.4v30.4c0,2.3-0.1,4-0.2,5.1c-0.1,1.1-0.6,2.5-1.4,3.9
		c-1.4,2.7-5.3,4-11.6,4c-6.9,0-11-1.8-12.2-5.5c-0.6-1.7-0.9-4.3-0.9-7.7v-82.6c0-2.3,0.1-4,0.2-5.1c0.1-1.1,0.6-2.5,1.4-3.9
		c1.4-2.7,5.3-4,11.6-4c6.9,0,11.1,1.8,12.4,5.5c0.5,1.7,0.7,4.3,0.7,7.7v30.4h39.5v-30.5c0-2.3,0.1-4,0.2-5.1
		C74.2,167.4,74.7,166.1,75.5,164.6z"/>
	<path class="st1" d="M163.3,159.2c14.7,0,27.4,5.3,38.3,15.9c10.8,10.6,16.2,23.8,16.2,39.5c0,15.7-5.2,29.1-15.5,40.2
		c-10.3,11.1-23,16.6-38.1,16.6c-15.1,0-27.9-5.5-38.5-16.4c-10.6-10.9-15.9-23.9-15.9-39c0-8.2,1.5-16,4.5-23.1
		c3-7.2,6.9-13.2,11.9-18.1c5-4.9,10.7-8.7,17.1-11.5C149.8,160.6,156.5,159.2,163.3,159.2z M136.2,215.3c0,8.8,2.9,16,8.6,21.5
		c5.7,5.5,12.1,8.3,19.1,8.3c7,0,13.4-2.7,19.1-8c5.7-5.4,8.5-12.6,8.5-21.6c0-9-2.9-16.3-8.6-21.7c-5.7-5.5-12.1-8.2-19.1-8.2
		c-7,0-13.4,2.8-19.1,8.3C139.1,199.3,136.2,206.5,136.2,215.3z"/>
	<path class="st1" d="M253.8,247.6h40.5c3.3,0,5.7,0.4,7.1,1.1c1.5,0.7,2.5,1.9,3,3.5c0.5,1.6,0.7,3.7,0.7,6.3
		c0,2.6-0.2,4.7-0.7,6.3c-0.5,1.6-1.3,2.7-2.5,3.3c-1.9,1-4.5,1.5-7.7,1.5h-53.6c-6.9,0-11-1.9-12.2-5.7c-0.6-1.6-0.9-4.1-0.9-7.6
		v-82.8c0-2.3,0.1-4,0.2-5.1c0.1-1.1,0.6-2.5,1.4-3.9c1.4-2.7,5.3-4,11.6-4c6.9,0,11.1,1.8,12.4,5.5c0.5,1.7,0.7,4.3,0.7,7.7V247.6z
		"/>
	<path class="st1" d="M314.9,173.7c0-2.3,0.1-4,0.2-5.1c0.1-1.1,0.6-2.5,1.4-3.9c1.4-2.7,5.3-4,11.6-4c6.9,0,11.1,1.8,12.4,5.5
		c0.5,1.7,0.7,4.3,0.7,7.7v82.8c0,2.4-0.1,4.1-0.2,5.2c-0.1,1.1-0.6,2.4-1.4,3.9c-1.4,2.7-5.3,4-11.6,4c-6.9,0-11-1.9-12.2-5.7
		c-0.6-1.6-0.9-4.1-0.9-7.6V173.7z"/>
	<path class="st1" d="M366.4,160.4l27.5,0.1c14.4,0,27,5.2,38,15.6c10.9,10.4,16.4,23.1,16.4,38.3c0,15.1-5.3,28.1-16,38.9
		c-10.7,10.8-23.6,16.2-38.8,16.2h-27.2c-6.1,0-9.8-1.2-11.3-3.7c-1.2-2.1-1.8-5.3-1.8-9.5v-82.8c0-2.4,0.1-4.1,0.2-5.2
		c0.1-1.1,0.6-2.4,1.4-3.9C356.1,161.8,360,160.4,366.4,160.4z M413.3,235.2c5.8-5.3,8.6-12,8.6-20c0-8-2.8-14.8-8.4-20.2
		c-5.6-5.4-12.2-8.1-19.7-8.1h-14.3v56.3h14.4C401.1,243.2,407.5,240.5,413.3,235.2z"/>
	<path class="st1" d="M513.5,168.3l40.2,83.1c1.7,3.4,2.5,5.9,2.5,7.6c0,3.6-2.9,6.8-8.6,9.7c-3.4,1.7-6,2.5-8,2.5
		c-1.9,0-3.5-0.4-4.8-1.3c-1.2-0.9-2.1-1.8-2.7-2.8c-0.5-1-1.3-2.5-2.3-4.5l-7.7-16.1h-41.2l-7.7,16.1c-1,2-1.8,3.4-2.3,4.3
		c-0.5,0.9-1.4,1.8-2.7,2.8c-1.2,0.9-2.8,1.4-4.8,1.4s-4.6-0.8-8-2.5c-5.8-2.8-8.6-6-8.6-9.5c0-1.7,0.8-4.2,2.5-7.6l40.2-83.2
		c1.1-2.3,2.8-4.1,5-5.5c2.2-1.4,4.6-2.1,7.1-2.1C506.9,160.6,510.9,163.1,513.5,168.3z M501.4,204l-9.8,20.4h19.8L501.4,204z"/>
	<path class="st1" d="M628.7,162.6c4.9,3.4,7.3,6.7,7.3,9.8c0,1.9-1.1,4.5-3.4,7.9l-32.2,48.1v28.4c0,2.3-0.1,4-0.2,5.1
		c-0.1,1.1-0.6,2.5-1.4,3.9c-0.8,1.5-2.1,2.5-4,3.1c-1.9,0.6-4.4,0.9-7.6,0.9c-3.2,0-5.7-0.3-7.6-0.9c-1.9-0.6-3.2-1.7-4-3.2
		c-0.8-1.5-1.3-2.9-1.4-4c-0.1-1.1-0.2-2.9-0.2-5.3v-28.1l-32.2-48.1c-2.3-3.4-3.4-6-3.4-7.9c0-3.2,2.2-6.2,6.5-9.2
		c4.4-2.9,7.5-4.4,9.4-4.4c1.9,0,3.4,0.4,4.5,1.2c1.7,1.1,3.5,3.1,5.4,6.1l23.1,36.9l23.1-36.9c1.9-3,3.5-4.9,4.9-5.9
		c1.4-0.9,3-1.4,4.8-1.4C621.8,158.9,624.7,160.2,628.7,162.6z"/>
</g>
<path class="st1" d="M347.4,313.6l50.4,104.1c2.1,4.2,3.2,7.4,3.2,9.5c0,4.5-3.6,8.5-10.8,12.1c-4.2,2.1-7.6,3.2-10,3.2
	c-2.4,0-4.4-0.6-6-1.7c-1.6-1.1-2.7-2.3-3.4-3.5c-0.7-1.2-1.6-3.1-2.9-5.6l-9.7-20.1h-51.7l-9.7,20.1c-1.2,2.5-2.2,4.3-2.9,5.4
	c-0.7,1.1-1.8,2.3-3.4,3.5c-1.6,1.2-3.5,1.8-6,1.8c-2.4,0-5.8-1.1-10-3.2c-7.2-3.5-10.8-7.5-10.8-11.9c0-2.1,1.1-5.3,3.2-9.5
	l50.4-104.2c1.4-2.9,3.5-5.2,6.2-6.9c2.8-1.7,5.7-2.6,8.9-2.6C339.2,303.9,344.1,307.1,347.4,313.6z M332.3,358.3L320,383.9h24.8
	L332.3,358.3z"/>
<g>
	<path class="st1" d="M7.8,422.1c-3.2-3.9-4.8-7.4-4.8-10.5s2.6-7.2,7.9-12.4c3.1-2.9,6.3-4.4,9.7-4.4c3.4,0,8.2,3.1,14.3,9.2
		c1.7,2.1,4.2,4.1,7.3,6c3.2,1.9,6.1,2.8,8.8,2.8c11.4,0,17-4.6,17-13.9c0-2.8-1.6-5.2-4.7-7.1c-3.1-1.9-7-3.3-11.6-4.1
		c-4.6-0.9-9.7-2.2-15-4.1c-5.4-1.9-10.4-4.1-15-6.7c-4.6-2.6-8.5-6.6-11.6-12.2c-3.1-5.6-4.7-12.2-4.7-20.1c0-10.8,4-20.1,12-28.1
		c8-8,18.9-12,32.7-12c7.3,0,14,0.9,20.1,2.8c6,1.9,10.2,3.8,12.6,5.8l4.6,3.5c3.8,3.5,5.7,6.5,5.7,9c0,2.4-1.5,5.8-4.4,10.1
		c-4.2,6.1-8.4,9.2-12.8,9.2c-2.6,0-5.7-1.2-9.5-3.7c-0.4-0.2-1.1-0.9-2.1-1.8c-1-1-2-1.8-2.8-2.4c-2.6-1.6-5.8-2.4-9.8-2.4
		c-4,0-7.3,0.9-9.9,2.8c-2.6,1.9-3.9,4.5-3.9,7.9c0,3.4,1.6,6.1,4.7,8.2c3.1,2.1,7,3.5,11.6,4.2c4.6,0.7,9.7,1.9,15.2,3.4
		c5.5,1.5,10.6,3.4,15.2,5.6c4.6,2.2,8.5,6,11.6,11.5c3.1,5.4,4.7,12.1,4.7,20.1c0,7.9-1.6,14.9-4.8,21c-3.2,6-7.3,10.7-12.5,14
		c-9.9,6.5-20.5,9.7-31.7,9.7c-5.7,0-11.2-0.7-16.3-2.1c-5.1-1.4-9.3-3.1-12.5-5.2c-6.5-3.9-11-7.7-13.6-11.4L7.8,422.1z"/>
	<path class="st1" d="M255.4,311.7c1,1.8,1.6,3.5,1.7,4.9c0.2,1.5,0.3,3.6,0.3,6.4v101.7c0,8.4-2.3,13.4-7,14.8
		c-2.3,0.7-5.3,1.1-8.8,1.1c-3.5,0-6.4-0.3-8.4-0.9c-2.1-0.6-3.7-1.3-4.8-2.2c-1.1-0.9-2-2.1-2.6-3.7c-0.6-2.1-0.9-5.3-0.9-9.5V363
		c-3.1,3.8-7.5,9.8-13.4,18.1c-5.9,8.2-9.6,13.4-11.2,15.5c-1.6,2.1-2.7,3.5-3.3,4.3c-0.6,0.8-2.1,1.9-4.5,3.3
		c-2.4,1.4-4.9,2.1-7.7,2.1c-2.7,0-5.3-0.6-7.5-1.9c-2.3-1.3-3.9-2.5-4.9-3.8l-1.5-2c-2.4-3.1-7.3-9.6-14.5-19.5
		c-7.2-10-11.1-15.3-11.7-16v61.8c0,2.8-0.1,4.9-0.3,6.3c-0.2,1.4-0.8,3-1.7,4.7c-1.8,3.3-6.6,4.9-14.3,4.9
		c-7.5,0-12.1-1.6-13.9-4.9c-1-1.7-1.6-3.3-1.7-4.8s-0.3-3.7-0.3-6.6V322.7c0-2.8,0.1-4.9,0.3-6.3c0.2-1.4,0.8-3,1.7-4.9
		c1.8-3.2,6.6-4.8,14.3-4.8c3.3,0,6.1,0.4,8.5,1.2c2.4,0.8,3.9,1.6,4.7,2.5l1.1,1.1l41.6,54.6c20.8-27.5,34.6-45.6,41.6-54.4
		c2.1-3.3,7-4.9,14.8-4.9C248.9,306.8,253.6,308.4,255.4,311.7z"/>
	<path class="st1" d="M408.8,422.1c-3.2-3.9-4.8-7.4-4.8-10.5s2.6-7.2,7.9-12.4c3.1-2.9,6.3-4.4,9.7-4.4c3.4,0,8.2,3.1,14.3,9.2
		c1.7,2.1,4.2,4.1,7.3,6c3.2,1.9,6.1,2.8,8.8,2.8c11.4,0,17-4.6,17-13.9c0-2.8-1.6-5.2-4.7-7.1c-3.1-1.9-7-3.3-11.6-4.1
		c-4.6-0.9-9.7-2.2-15-4.1c-5.4-1.9-10.4-4.1-15-6.7c-4.6-2.6-8.5-6.6-11.6-12.2c-3.1-5.6-4.7-12.2-4.7-20.1c0-10.8,4-20.1,12-28.1
		c8-8,18.9-12,32.7-12c7.3,0,14,0.9,20.1,2.8c6,1.9,10.2,3.8,12.6,5.8l4.6,3.5c3.8,3.5,5.7,6.5,5.7,9c0,2.4-1.5,5.8-4.4,10.1
		c-4.2,6.1-8.4,9.2-12.8,9.2c-2.6,0-5.7-1.2-9.5-3.7c-0.4-0.2-1.1-0.9-2.1-1.8c-1-1-2-1.8-2.8-2.4c-2.6-1.6-5.8-2.4-9.8-2.4
		c-4,0-7.3,0.9-9.9,2.8c-2.6,1.9-3.9,4.5-3.9,7.9c0,3.4,1.6,6.1,4.7,8.2c3.1,2.1,7,3.5,11.6,4.2c4.6,0.7,9.7,1.9,15.2,3.4
		c5.5,1.5,10.6,3.4,15.2,5.6c4.6,2.2,8.5,6,11.6,11.5c3.1,5.4,4.7,12.1,4.7,20.1c0,7.9-1.6,14.9-4.8,21c-3.2,6-7.3,10.7-12.5,14
		c-9.9,6.5-20.5,9.7-31.7,9.7c-5.7,0-11.2-0.7-16.3-2.1c-5.1-1.4-9.3-3.1-12.5-5.2c-6.5-3.9-11-7.7-13.6-11.4L408.8,422.1z"/>
	<path class="st1" d="M596.6,311.5c1-1.8,2.6-3.1,4.9-3.8c2.3-0.7,5.3-1.1,8.8-1.1c3.5,0,6.4,0.3,8.4,0.9c2.1,0.6,3.7,1.3,4.8,2.2
		c1.1,0.9,2,2.1,2.6,3.7c0.6,2.1,0.9,5.3,0.9,9.5v101.7c0,2.8-0.1,4.9-0.3,6.3c-0.2,1.4-0.8,3-1.7,4.9c-1.7,3.3-6.5,4.9-14.3,4.9
		c-8.6,0-13.6-2.3-15-6.8c-0.7-2.1-1.1-5.3-1.1-9.5v-37.2H546v37.4c0,2.8-0.1,4.9-0.3,6.3c-0.2,1.4-0.8,3-1.7,4.9
		c-1.7,3.3-6.5,4.9-14.3,4.9c-8.6,0-13.6-2.3-15-6.8c-0.7-2.1-1.1-5.3-1.1-9.5V322.7c0-2.8,0.1-4.9,0.3-6.3c0.2-1.4,0.8-3,1.7-4.9
		c1.7-3.3,6.5-4.9,14.3-4.9c8.6,0,13.6,2.3,15.2,6.8c0.6,2.1,0.9,5.3,0.9,9.5v37.4h48.6v-37.6c0-2.8,0.1-4.9,0.3-6.3
		C595,315,595.6,313.4,596.6,311.5z"/>
</g>
</svg>
