<!-- Generator: Adobe Illustrator 24.3.0, SVG Export Plug-In  -->
<svg version="1.1" xmlns="http://www.w3.org/2000/svg" xmlns:xlink="http://www.w3.org/1999/xlink" x="0px" y="0px" width="36.2px"
	 height="28px" viewBox="0 0 36.2 28" style="overflow:visible;enable-background:new 0 0 36.2 28;" xml:space="preserve">
<style type="text/css">
	.st0{fill:#FFFFFF;}
	.st1{clip-path:url(#SVGID_2_);fill:#FFFFFF;}
	.st2{clip-path:url(#SVGID_4_);fill:#FFFFFF;}
</style>
<defs>
</defs>
<g>
	<path class="st0" d="M21.7,22c-0.4,0-0.8-0.1-1.1-0.4C20,21,20,20,20.6,19.4l13-13c0.6-0.6,1.5-0.6,2.1,0s0.6,1.5,0,2.1l-13,13
		C22.4,21.8,22,22,21.7,22z"/>
</g>
<g>
	<path class="st0" d="M34.7,22c-0.4,0-0.8-0.1-1.1-0.4l-13-13C20,8,20,7,20.6,6.4s1.5-0.6,2.1,0l13,13c0.6,0.6,0.6,1.5,0,2.1
		C35.4,21.8,35,22,34.7,22z"/>
</g>
<g>
	<g>
		<defs>
			<path id="SVGID_1_" d="M8.8,6.1H1.5C0.7,6.1,0,6.8,0,7.6v12.7c0,0.9,0.7,1.5,1.5,1.5h7.2c0.5,0,0.9,0.2,1.2,0.6l3.7,4.4
				c0.9,1.1,2.7,0.4,2.7-1V2.1c0-1.4-1.8-2.1-2.7-1L10,5.5C9.7,5.9,9.2,6.1,8.8,6.1z"/>
		</defs>
		<use xlink:href="#SVGID_1_"  style="overflow:visible;fill:#FFFFFF;"/>
		<clipPath id="SVGID_2_">
			<use xlink:href="#SVGID_1_"  style="overflow:visible;"/>
		</clipPath>
		<path class="st1" d="M0,0v28V0z"/>
		<rect x="0" class="st1" width="0.1" height="28"/>
		<rect x="0.1" class="st1" width="0.1" height="28"/>
		<rect x="0.2" class="st1" width="0.1" height="28"/>
		<rect x="0.3" class="st1" width="0.1" height="28"/>
		<rect x="0.4" class="st1" width="0.1" height="28"/>
		<rect x="0.5" class="st1" width="0.1" height="28"/>
		<rect x="0.6" class="st1" width="0.1" height="28"/>
		<rect x="0.6" class="st1" width="0.1" height="28"/>
		<rect x="0.7" class="st1" width="0.1" height="28"/>
		<rect x="0.8" class="st1" width="0.1" height="28"/>
		<rect x="0.9" class="st1" width="0.1" height="28"/>
		<rect x="1" class="st1" width="0.1" height="28"/>
		<rect x="1.1" class="st1" width="0.1" height="28"/>
		<rect x="1.2" class="st1" width="0.1" height="28"/>
		<rect x="1.3" class="st1" width="0.1" height="28"/>
		<rect x="1.4" class="st1" width="0.1" height="28"/>
		<rect x="1.5" class="st1" width="0.1" height="28"/>
		<rect x="1.6" class="st1" width="0.1" height="28"/>
		<rect x="1.7" class="st1" width="0.1" height="28"/>
		<rect x="1.7" class="st1" width="0.1" height="28"/>
		<rect x="1.8" class="st1" width="0.1" height="28"/>
		<rect x="1.9" class="st1" width="0.1" height="28"/>
		<rect x="2" class="st1" width="0.1" height="28"/>
		<rect x="2.1" class="st1" width="0.1" height="28"/>
		<rect x="2.2" class="st1" width="0.1" height="28"/>
		<rect x="2.3" class="st1" width="0.1" height="28"/>
		<rect x="2.4" class="st1" width="0.1" height="28"/>
		<rect x="2.5" class="st1" width="0.1" height="28"/>
		<rect x="2.6" class="st1" width="0.1" height="28"/>
		<rect x="2.7" class="st1" width="0.1" height="28"/>
		<rect x="2.8" class="st1" width="0.1" height="28"/>
		<rect x="2.9" class="st1" width="0.1" height="28"/>
		<rect x="2.9" class="st1" width="0.1" height="28"/>
		<rect x="3" class="st1" width="0.1" height="28"/>
		<rect x="3.1" class="st1" width="0.1" height="28"/>
		<rect x="3.2" class="st1" width="0.1" height="28"/>
		<rect x="3.3" class="st1" width="0.1" height="28"/>
		<rect x="3.4" class="st1" width="0.1" height="28"/>
		<rect x="3.5" class="st1" width="0.1" height="28"/>
		<rect x="3.6" class="st1" width="0.1" height="28"/>
		<rect x="3.7" class="st1" width="0.1" height="28"/>
		<rect x="3.8" class="st1" width="0.1" height="28"/>
		<rect x="3.9" class="st1" width="0.1" height="28"/>
		<rect x="4" class="st1" width="0.1" height="28"/>
		<rect x="4.1" class="st1" width="0.1" height="28"/>
		<rect x="4.1" class="st1" width="0.1" height="28"/>
		<rect x="4.2" class="st1" width="0.1" height="28"/>
		<rect x="4.3" class="st1" width="0.1" height="28"/>
		<rect x="4.4" class="st1" width="0.1" height="28"/>
		<rect x="4.5" class="st1" width="0.1" height="28"/>
		<rect x="4.6" class="st1" width="0.1" height="28"/>
		<rect x="4.7" class="st1" width="0.1" height="28"/>
		<rect x="4.8" class="st1" width="0.1" height="28"/>
		<rect x="4.9" class="st1" width="0.1" height="28"/>
		<rect x="5" class="st1" width="0.1" height="28"/>
		<rect x="5.1" class="st1" width="0.1" height="28"/>
		<rect x="5.2" class="st1" width="0.1" height="28"/>
		<rect x="5.2" class="st1" width="0.1" height="28"/>
		<rect x="5.3" class="st1" width="0.1" height="28"/>
		<rect x="5.4" class="st1" width="0.1" height="28"/>
		<rect x="5.5" class="st1" width="0.1" height="28"/>
		<rect x="5.6" class="st1" width="0.1" height="28"/>
		<rect x="5.7" class="st1" width="0.1" height="28"/>
		<rect x="5.8" class="st1" width="0.1" height="28"/>
		<rect x="5.9" class="st1" width="0.1" height="28"/>
		<rect x="6" class="st1" width="0.1" height="28"/>
		<rect x="6.1" class="st1" width="0.1" height="28"/>
		<rect x="6.2" class="st1" width="0.1" height="28"/>
		<rect x="6.3" class="st1" width="0.1" height="28"/>
		<rect x="6.4" class="st1" width="0.1" height="28"/>
		<rect x="6.4" class="st1" width="0.1" height="28"/>
		<rect x="6.5" class="st1" width="4.7" height="28"/>
		<rect x="11.3" class="st1" width="0.1" height="28"/>
		<rect x="11.3" class="st1" width="0.1" height="28"/>
		<rect x="11.4" class="st1" width="0.1" height="28"/>
		<rect x="11.5" class="st1" width="0.1" height="28"/>
		<rect x="11.5" class="st1" width="0.1" height="28"/>
		<rect x="11.6" class="st1" width="0.1" height="28"/>
		<rect x="11.7" class="st1" width="0.1" height="28"/>
		<rect x="11.8" class="st1" width="0.1" height="28"/>
		<rect x="11.8" class="st1" width="0.1" height="28"/>
		<rect x="11.9" class="st1" width="0.1" height="28"/>
		<rect x="12" class="st1" width="0.1" height="28"/>
		<rect x="12.1" class="st1" width="0.1" height="28"/>
		<rect x="12.1" class="st1" width="0.1" height="28"/>
		<rect x="12.2" class="st1" width="0.1" height="28"/>
		<rect x="12.3" class="st1" width="0.1" height="28"/>
		<rect x="12.3" class="st1" width="0.1" height="28"/>
		<rect x="12.4" class="st1" width="0.1" height="28"/>
		<rect x="12.5" class="st1" width="0.1" height="28"/>
		<rect x="12.6" class="st1" width="0.1" height="28"/>
		<rect x="12.6" class="st1" width="0.1" height="28"/>
		<rect x="12.7" class="st1" width="0.1" height="28"/>
		<rect x="12.8" class="st1" width="0.1" height="28"/>
		<rect x="12.8" class="st1" width="0.1" height="28"/>
		<rect x="12.9" class="st1" width="0.1" height="28"/>
		<rect x="13" class="st1" width="0.1" height="28"/>
		<rect x="13.1" class="st1" width="0.1" height="28"/>
		<rect x="13.1" class="st1" width="0.1" height="28"/>
		<rect x="13.2" class="st1" width="0.1" height="28"/>
		<rect x="13.3" class="st1" width="0.1" height="28"/>
		<rect x="13.4" class="st1" width="0.1" height="28"/>
		<rect x="13.4" class="st1" width="0.1" height="28"/>
		<rect x="13.5" class="st1" width="0.1" height="28"/>
		<rect x="13.6" class="st1" width="0.1" height="28"/>
		<rect x="13.6" class="st1" width="0.1" height="28"/>
		<rect x="13.7" class="st1" width="0.1" height="28"/>
		<rect x="13.8" class="st1" width="0.1" height="28"/>
		<rect x="13.9" class="st1" width="0.1" height="28"/>
		<rect x="13.9" class="st1" width="0.1" height="28"/>
		<rect x="14" class="st1" width="0.1" height="28"/>
		<rect x="14.1" class="st1" width="0.1" height="28"/>
		<rect x="14.2" class="st1" width="0.1" height="28"/>
		<rect x="14.2" class="st1" width="0.1" height="28"/>
		<rect x="14.3" class="st1" width="0.1" height="28"/>
		<rect x="14.4" class="st1" width="0.1" height="28"/>
		<rect x="14.4" class="st1" width="0.1" height="28"/>
		<rect x="14.5" class="st1" width="0.1" height="28"/>
		<rect x="14.6" class="st1" width="0.1" height="28"/>
		<rect x="14.7" class="st1" width="0.1" height="28"/>
		<rect x="14.7" class="st1" width="0.1" height="28"/>
		<rect x="14.8" class="st1" width="0.1" height="28"/>
		<rect x="14.9" class="st1" width="0.1" height="28"/>
		<rect x="14.9" class="st1" width="0.1" height="28"/>
		<rect x="15" class="st1" width="0.1" height="28"/>
		<rect x="15.1" class="st1" width="0.1" height="28"/>
		<rect x="15.2" class="st1" width="0.1" height="28"/>
		<rect x="15.2" class="st1" width="0.1" height="28"/>
		<rect x="15.3" class="st1" width="0.1" height="28"/>
		<rect x="15.4" class="st1" width="0.1" height="28"/>
		<rect x="15.5" class="st1" width="0.1" height="28"/>
		<rect x="15.5" class="st1" width="0.1" height="28"/>
		<rect x="15.6" class="st1" width="0.1" height="28"/>
		<rect x="15.7" class="st1" width="0.1" height="28"/>
		<rect x="15.7" class="st1" width="0.1" height="28"/>
		<rect x="15.8" class="st1" width="0.1" height="28"/>
		<rect x="15.9" class="st1" width="0.1" height="28"/>
		<rect x="16" class="st1" width="0.1" height="28"/>
		<rect x="16" class="st1" width="0.1" height="28"/>
		<rect x="16.1" class="st1" width="0.1" height="28"/>
		<rect x="16.2" class="st1" width="0.1" height="28"/>
		<rect x="16.3" class="st1" width="0.1" height="28"/>
		<rect x="16.3" class="st1" width="0.1" height="28"/>
		<rect x="16.4" class="st1" width="0" height="28"/>
	</g>
</g>
</svg>
