<!-- Generator: Adobe Illustrator 24.3.0, SVG Export Plug-In  -->
<svg version="1.1" xmlns="http://www.w3.org/2000/svg" xmlns:xlink="http://www.w3.org/1999/xlink" x="0px" y="0px" width="38px"
	 height="31.4px" viewBox="0 0 38 31.4" style="overflow:visible;enable-background:new 0 0 38 31.4;" xml:space="preserve">
<style type="text/css">
	.st0{fill:none;stroke:url(#SVGID_1_);stroke-width:3;}
	.st1{fill:none;stroke:url(#SVGID_2_);stroke-width:3;stroke-linecap:round;}
	.st2{fill:none;stroke:url(#SVGID_3_);stroke-width:3;stroke-linecap:round;}
	.st3{fill:none;stroke:url(#SVGID_4_);stroke-width:3;stroke-linecap:round;}
	.st4{fill:none;stroke:url(#SVGID_5_);stroke-width:3;}
	.st5{fill:none;stroke:url(#SVGID_6_);stroke-width:3;stroke-linecap:round;}
	.st6{fill:none;stroke:url(#SVGID_7_);stroke-width:3;stroke-linecap:round;}
	.st7{fill:none;stroke:url(#SVGID_8_);stroke-width:3;stroke-linecap:round;}
</style>
<defs>
</defs>
<g>
	<linearGradient id="SVGID_1_" gradientUnits="userSpaceOnUse" x1="0" y1="16.1159" x2="19.4033" y2="16.1159">
		<stop  offset="0" style="stop-color:#B5D3D4"/>
		<stop  offset="0.3985" style="stop-color:#FCF8FF"/>
		<stop  offset="0.4054" style="stop-color:#FCF8FF"/>
		<stop  offset="0.6863" style="stop-color:#FCF8FF"/>
		<stop  offset="0.7072" style="stop-color:#F3F3F9"/>
		<stop  offset="0.7779" style="stop-color:#D8E5E9"/>
		<stop  offset="0.8498" style="stop-color:#C4DBDD"/>
		<stop  offset="0.923" style="stop-color:#B9D5D6"/>
		<stop  offset="0.9996" style="stop-color:#B5D3D4"/>
	</linearGradient>
	<path class="st0" d="M10.3,8.2H3c-0.9,0-1.5,0.7-1.5,1.5v12.7C1.5,23.3,2.2,24,3,24h7.2c0.5,0,0.9,0.2,1.2,0.6l3.7,4.4
		c0.9,1.1,2.7,0.4,2.7-1V4.2c0-1.4-1.8-2.1-2.7-1l-3.7,4.4C11.2,8,10.7,8.2,10.3,8.2z"/>
	<linearGradient id="SVGID_2_" gradientUnits="userSpaceOnUse" x1="21.3506" y1="15.7098" x2="26.3391" y2="15.7098">
		<stop  offset="0" style="stop-color:#B5D3D4"/>
		<stop  offset="0.3985" style="stop-color:#FCF8FF"/>
		<stop  offset="0.4054" style="stop-color:#FCF8FF"/>
		<stop  offset="0.6863" style="stop-color:#FCF8FF"/>
		<stop  offset="0.7072" style="stop-color:#F3F3F9"/>
		<stop  offset="0.7779" style="stop-color:#D8E5E9"/>
		<stop  offset="0.8498" style="stop-color:#C4DBDD"/>
		<stop  offset="0.923" style="stop-color:#B9D5D6"/>
		<stop  offset="0.9996" style="stop-color:#B5D3D4"/>
	</linearGradient>
	<path class="st1" d="M22.9,8.2c1.3,2.2,2,4.8,2,7.5c0,2.7-0.7,5.3-2,7.4"/>
	<linearGradient id="SVGID_3_" gradientUnits="userSpaceOnUse" x1="26.6522" y1="15.6986" x2="32.4425" y2="15.6986">
		<stop  offset="0" style="stop-color:#B5D3D4"/>
		<stop  offset="0.3985" style="stop-color:#FCF8FF"/>
		<stop  offset="0.4054" style="stop-color:#FCF8FF"/>
		<stop  offset="0.6863" style="stop-color:#FCF8FF"/>
		<stop  offset="0.7072" style="stop-color:#F3F3F9"/>
		<stop  offset="0.7779" style="stop-color:#D8E5E9"/>
		<stop  offset="0.8498" style="stop-color:#C4DBDD"/>
		<stop  offset="0.923" style="stop-color:#B9D5D6"/>
		<stop  offset="0.9996" style="stop-color:#B5D3D4"/>
	</linearGradient>
	<path class="st2" d="M28.2,5.2c1.8,3.1,2.8,6.7,2.8,10.5c0,3.8-1,7.4-2.7,10.5"/>
	<linearGradient id="SVGID_4_" gradientUnits="userSpaceOnUse" x1="31.2134" y1="15.6848" x2="37.9857" y2="15.6848">
		<stop  offset="0" style="stop-color:#B5D3D4"/>
		<stop  offset="0.3985" style="stop-color:#FCF8FF"/>
		<stop  offset="0.4054" style="stop-color:#FCF8FF"/>
		<stop  offset="0.6863" style="stop-color:#FCF8FF"/>
		<stop  offset="0.7072" style="stop-color:#F3F3F9"/>
		<stop  offset="0.7779" style="stop-color:#D8E5E9"/>
		<stop  offset="0.8498" style="stop-color:#C4DBDD"/>
		<stop  offset="0.923" style="stop-color:#B9D5D6"/>
		<stop  offset="0.9996" style="stop-color:#B5D3D4"/>
	</linearGradient>
	<path class="st3" d="M32.7,1.5c2.4,4.2,3.8,9.1,3.8,14.2c0,5.1-1.3,10-3.7,14.1"/>
</g>
</svg>
