<!-- Generator: Adobe Illustrator 24.3.0, SVG Export Plug-In  -->
<svg version="1.1" xmlns="http://www.w3.org/2000/svg" xmlns:xlink="http://www.w3.org/1999/xlink" x="0px" y="0px" width="624px"
	 height="194.7px" viewBox="0 0 624 194.7" style="overflow:visible;enable-background:new 0 0 624 194.7;" xml:space="preserve">
<style type="text/css">
	.st0{fill:#609D61;}
	.st1{fill:none;stroke:#2C2D2B;stroke-width:13;}
	.st2{fill:#EA5E5E;}
	.st3{fill:#FFFFFF;}
</style>
<defs>
</defs>
<path class="st0" d="M613.9,194.7H29.5c-5.6,0-10.1-4.5-10.1-10.1V30.4c0-5.6,4.5-10.1,10.1-10.1h584.4c5.6,0,10.1,4.5,10.1,10.1
	v154.2C624,190.2,619.5,194.7,613.9,194.7z"/>
<path class="st1" d="M601,180.9H16.6c-5.6,0-10.1-4.5-10.1-10.1V16.6C6.5,11,11,6.5,16.6,6.5H601c5.6,0,10.1,4.5,10.1,10.1v154.2
	C611.1,176.4,606.6,180.9,601,180.9z"/>
<g>
	<path class="st2" d="M80.8,143.1c-9.2-8.4,0.1-21.3,10.7-22.9c6.8-0.4,16.3,15.7,25.5,15c11.7,1.2,19.7-10.7,10.4-17.6
		c-20.2-7.4-50.1-10.2-48.6-39.5c2-60.5,111.4-25.4,58.9,0.2c-9.6-1.3-16.8-14.4-28.6-6.2C94.3,91.6,135.3,89,144.9,96.6
		c14.8,7,16.9,30.5,9.7,44C140.3,167.1,96.8,166,80.8,143.1z"/>
	<path class="st2" d="M168.3,46.3h85.3c8.3-0.5,11.5,3.4,11,11.2c0.5,8-3.1,11.5-11.2,11c0,0-29.3,0-29.3,0
		c-0.2,2.8,0.4,81.5-0.2,82.4c-0.7,6.5-6.6,8.2-13.1,8c-6.5,0.3-12.3-1.5-13-8.1c-0.5,1-0.1-80.7-0.2-82.3
		c-5.2-0.5-32.5,1.2-36.7-1.2c-5.2-2.6-4.1-11.8-3.1-16.4C159.5,46.4,163.2,46.6,168.3,46.3z"/>
	<path class="st2" d="M315,54.4c1.3,3.7,45.8,91.9,44,93.5c1,5.4-11.7,12.7-17.1,12.6c-9.6,0.6-13.6-19.1-18-25.5h-42.5
		c-3.1,5.2-8.2,20.3-13.1,23.9c-6.1,4.9-22.5-4.3-22-11c-1.9-0.9,43-90.5,44-93.6C294.9,44.2,310.4,43.5,315,54.4z M302.5,91.2
		l-10.1,21h20.4L302.5,91.2z"/>
	<path class="st2" d="M453.5,139.9c1.5,3.7,2.3,6.3,2.3,8c0.6,6.8-16.1,15.2-22.3,10.5c-6.2-6.1-5.4-10.3-14.8-30.8
		c-3.1,0.4-20.6,0.3-24.1,0.3c-1.4,11.4,6.1,32.7-13.7,30.8c-11.6-0.2-13.6-4-13.5-13.7c0,0,0-85.2,0-85.2
		c-0.3-9.1,2.1-13.7,13.7-13.5c17.9,0.9,44.3-4.2,59.4,9.8c17.6,13.4,19,44.7,2.6,59.5C445.4,121.2,448.8,129.2,453.5,139.9z
		 M394.6,100.7c10.8-0.5,33.5,4,33-13.5c0.5-17.5-22.1-13.2-33-13.7V100.7z"/>
	<path class="st2" d="M465.5,46.3h85.3c8.3-0.5,11.5,3.4,11,11.2c0.5,8-3.1,11.5-11.2,11c0,0-29.3,0-29.3,0
		c-0.2,2.8,0.4,81.5-0.2,82.4c-0.7,6.5-6.6,8.2-13.1,8c-6.5,0.3-12.3-1.5-13-8.1c-0.5,1-0.1-80.7-0.2-82.3
		c-5.2-0.5-32.5,1.2-36.7-1.2c-5.2-2.6-4.1-11.8-3.1-16.4C456.8,46.4,460.5,46.6,465.5,46.3z"/>
</g>
<g>
	<path class="st3" d="M85.9,136c-9.2-8.4,0.1-21.3,10.7-22.9c6.8-0.4,16.3,15.7,25.5,15c11.7,1.2,19.7-10.7,10.4-17.6
		c-20.2-7.4-50.1-10.2-48.6-39.5c2-60.5,111.4-25.4,58.9,0.2c-9.6-1.3-16.8-14.4-28.6-6.2C99.4,84.4,140.4,81.9,150,89.5
		c14.8,7,16.9,30.5,9.7,44C145.4,160,101.9,158.9,85.9,136z"/>
	<path class="st3" d="M173.4,39.2h85.3c8.3-0.5,11.5,3.4,11,11.2c0.5,8-3.1,11.5-11.2,11c0,0-29.3,0-29.3,0
		c-0.2,2.8,0.4,81.5-0.2,82.4c-0.7,6.5-6.6,8.2-13.1,8c-6.5,0.3-12.3-1.5-13-8.1c-0.5,1-0.1-80.7-0.2-82.3
		c-5.2-0.5-32.5,1.2-36.7-1.2c-5.2-2.6-4.1-11.8-3.1-16.4C164.6,39.3,168.3,39.4,173.4,39.2z"/>
	<path class="st3" d="M320.1,47.3c1.3,3.7,45.8,91.9,44,93.5c1,5.4-11.7,12.7-17.1,12.6c-9.6,0.6-13.6-19.1-18-25.5h-42.5
		c-3.1,5.2-8.2,20.3-13.1,23.9c-6.1,4.9-22.5-4.3-22-11c-1.9-0.9,43-90.5,44-93.6C300,37.1,315.5,36.4,320.1,47.3z M307.6,84.1
		l-10.1,21h20.4L307.6,84.1z"/>
	<path class="st3" d="M458.6,132.8c1.5,3.7,2.3,6.3,2.3,8c0.6,6.8-16.1,15.2-22.3,10.5c-6.2-6.1-5.4-10.3-14.8-30.8
		c-3.1,0.4-20.6,0.3-24.1,0.3c-1.4,11.4,6.1,32.7-13.7,30.8c-11.6-0.2-13.6-4-13.5-13.7c0,0,0-85.2,0-85.2
		c-0.3-9.1,2.1-13.7,13.7-13.5c17.9,0.9,44.3-4.2,59.4,9.8c17.6,13.4,19,44.7,2.6,59.5C450.5,114.1,453.9,122.1,458.6,132.8z
		 M399.7,93.6c10.8-0.5,33.5,4,33-13.5c0.5-17.5-22.1-13.2-33-13.7V93.6z"/>
	<path class="st3" d="M470.6,39.2h85.3c8.3-0.5,11.5,3.4,11,11.2c0.5,8-3.1,11.5-11.2,11c0,0-29.3,0-29.3,0
		c-0.2,2.8,0.4,81.5-0.2,82.4c-0.7,6.5-6.6,8.2-13.1,8c-6.5,0.3-12.3-1.5-13-8.1c-0.5,1-0.1-80.7-0.2-82.3
		c-5.2-0.5-32.5,1.2-36.7-1.2c-5.2-2.6-4.1-11.8-3.1-16.4C461.9,39.3,465.6,39.4,470.6,39.2z"/>
</g>
</svg>
