<!-- Generator: Adobe Illustrator 24.3.0, SVG Export Plug-In  -->
<svg version="1.1" xmlns="http://www.w3.org/2000/svg" xmlns:xlink="http://www.w3.org/1999/xlink" x="0px" y="0px" width="36.5px"
	 height="31.4px" viewBox="0 0 36.5 31.4" style="overflow:visible;enable-background:new 0 0 36.5 31.4;" xml:space="preserve">
<style type="text/css">
	.st0{clip-path:url(#SVGID_2_);fill:#FFFFFF;}
	.st1{fill:#FFFFFF;}
	.st2{clip-path:url(#SVGID_4_);fill:#FFFFFF;}
</style>
<defs>
</defs>
<g>
	<g>
		<g>
			<defs>
				<path id="SVGID_1_" d="M8.8,8.2H1.5C0.7,8.2,0,8.9,0,9.8v12.7C0,23.3,0.7,24,1.5,24h7.2c0.5,0,0.9,0.2,1.2,0.6l3.7,4.4
					c0.9,1.1,2.7,0.4,2.7-1V4.2c0-1.4-1.8-2.1-2.7-1L10,7.7C9.7,8,9.2,8.2,8.8,8.2z"/>
			</defs>
			<use xlink:href="#SVGID_1_"  style="overflow:visible;fill:#FFFFFF;"/>
			<clipPath id="SVGID_2_">
				<use xlink:href="#SVGID_1_"  style="overflow:visible;"/>
			</clipPath>
			<path class="st0" d="M0,2.1v28V2.1z"/>
			<rect x="0" y="2.1" class="st0" width="0.1" height="28"/>
			<rect x="0.1" y="2.1" class="st0" width="0.1" height="28"/>
			<rect x="0.2" y="2.1" class="st0" width="0.1" height="28"/>
			<rect x="0.3" y="2.1" class="st0" width="0.1" height="28"/>
			<rect x="0.4" y="2.1" class="st0" width="0.1" height="28"/>
			<rect x="0.5" y="2.1" class="st0" width="0.1" height="28"/>
			<rect x="0.6" y="2.1" class="st0" width="0.1" height="28"/>
			<rect x="0.6" y="2.1" class="st0" width="0.1" height="28"/>
			<rect x="0.7" y="2.1" class="st0" width="0.1" height="28"/>
			<rect x="0.8" y="2.1" class="st0" width="0.1" height="28"/>
			<rect x="0.9" y="2.1" class="st0" width="0.1" height="28"/>
			<rect x="1" y="2.1" class="st0" width="0.1" height="28"/>
			<rect x="1.1" y="2.1" class="st0" width="0.1" height="28"/>
			<rect x="1.2" y="2.1" class="st0" width="0.1" height="28"/>
			<rect x="1.3" y="2.1" class="st0" width="0.1" height="28"/>
			<rect x="1.4" y="2.1" class="st0" width="0.1" height="28"/>
			<rect x="1.5" y="2.1" class="st0" width="0.1" height="28"/>
			<rect x="1.6" y="2.1" class="st0" width="0.1" height="28"/>
			<rect x="1.7" y="2.1" class="st0" width="0.1" height="28"/>
			<rect x="1.7" y="2.1" class="st0" width="0.1" height="28"/>
			<rect x="1.8" y="2.1" class="st0" width="0.1" height="28"/>
			<rect x="1.9" y="2.1" class="st0" width="0.1" height="28"/>
			<rect x="2" y="2.1" class="st0" width="0.1" height="28"/>
			<rect x="2.1" y="2.1" class="st0" width="0.1" height="28"/>
			<rect x="2.2" y="2.1" class="st0" width="0.1" height="28"/>
			<rect x="2.3" y="2.1" class="st0" width="0.1" height="28"/>
			<rect x="2.4" y="2.1" class="st0" width="0.1" height="28"/>
			<rect x="2.5" y="2.1" class="st0" width="0.1" height="28"/>
			<rect x="2.6" y="2.1" class="st0" width="0.1" height="28"/>
			<rect x="2.7" y="2.1" class="st0" width="0.1" height="28"/>
			<rect x="2.8" y="2.1" class="st0" width="0.1" height="28"/>
			<rect x="2.9" y="2.1" class="st0" width="0.1" height="28"/>
			<rect x="2.9" y="2.1" class="st0" width="0.1" height="28"/>
			<rect x="3" y="2.1" class="st0" width="0.1" height="28"/>
			<rect x="3.1" y="2.1" class="st0" width="0.1" height="28"/>
			<rect x="3.2" y="2.1" class="st0" width="0.1" height="28"/>
			<rect x="3.3" y="2.1" class="st0" width="0.1" height="28"/>
			<rect x="3.4" y="2.1" class="st0" width="0.1" height="28"/>
			<rect x="3.5" y="2.1" class="st0" width="0.1" height="28"/>
			<rect x="3.6" y="2.1" class="st0" width="0.1" height="28"/>
			<rect x="3.7" y="2.1" class="st0" width="0.1" height="28"/>
			<rect x="3.8" y="2.1" class="st0" width="0.1" height="28"/>
			<rect x="3.9" y="2.1" class="st0" width="0.1" height="28"/>
			<rect x="4" y="2.1" class="st0" width="0.1" height="28"/>
			<rect x="4.1" y="2.1" class="st0" width="0.1" height="28"/>
			<rect x="4.1" y="2.1" class="st0" width="0.1" height="28"/>
			<rect x="4.2" y="2.1" class="st0" width="0.1" height="28"/>
			<rect x="4.3" y="2.1" class="st0" width="0.1" height="28"/>
			<rect x="4.4" y="2.1" class="st0" width="0.1" height="28"/>
			<rect x="4.5" y="2.1" class="st0" width="0.1" height="28"/>
			<rect x="4.6" y="2.1" class="st0" width="0.1" height="28"/>
			<rect x="4.7" y="2.1" class="st0" width="0.1" height="28"/>
			<rect x="4.8" y="2.1" class="st0" width="0.1" height="28"/>
			<rect x="4.9" y="2.1" class="st0" width="0.1" height="28"/>
			<rect x="5" y="2.1" class="st0" width="0.1" height="28"/>
			<rect x="5.1" y="2.1" class="st0" width="0.1" height="28"/>
			<rect x="5.2" y="2.1" class="st0" width="0.1" height="28"/>
			<rect x="5.2" y="2.1" class="st0" width="0.1" height="28"/>
			<rect x="5.3" y="2.1" class="st0" width="0.1" height="28"/>
			<rect x="5.4" y="2.1" class="st0" width="0.1" height="28"/>
			<rect x="5.5" y="2.1" class="st0" width="0.1" height="28"/>
			<rect x="5.6" y="2.1" class="st0" width="0.1" height="28"/>
			<rect x="5.7" y="2.1" class="st0" width="0.1" height="28"/>
			<rect x="5.8" y="2.1" class="st0" width="0.1" height="28"/>
			<rect x="5.9" y="2.1" class="st0" width="0.1" height="28"/>
			<rect x="6" y="2.1" class="st0" width="0.1" height="28"/>
			<rect x="6.1" y="2.1" class="st0" width="0.1" height="28"/>
			<rect x="6.2" y="2.1" class="st0" width="0.1" height="28"/>
			<rect x="6.3" y="2.1" class="st0" width="0.1" height="28"/>
			<rect x="6.4" y="2.1" class="st0" width="0.1" height="28"/>
			<rect x="6.4" y="2.1" class="st0" width="0.1" height="28"/>
			<rect x="6.5" y="2.1" class="st0" width="4.7" height="28"/>
			<rect x="11.3" y="2.1" class="st0" width="0.1" height="28"/>
			<rect x="11.3" y="2.1" class="st0" width="0.1" height="28"/>
			<rect x="11.4" y="2.1" class="st0" width="0.1" height="28"/>
			<rect x="11.5" y="2.1" class="st0" width="0.1" height="28"/>
			<rect x="11.5" y="2.1" class="st0" width="0.1" height="28"/>
			<rect x="11.6" y="2.1" class="st0" width="0.1" height="28"/>
			<rect x="11.7" y="2.1" class="st0" width="0.1" height="28"/>
			<rect x="11.8" y="2.1" class="st0" width="0.1" height="28"/>
			<rect x="11.8" y="2.1" class="st0" width="0.1" height="28"/>
			<rect x="11.9" y="2.1" class="st0" width="0.1" height="28"/>
			<rect x="12" y="2.1" class="st0" width="0.1" height="28"/>
			<rect x="12.1" y="2.1" class="st0" width="0.1" height="28"/>
			<rect x="12.1" y="2.1" class="st0" width="0.1" height="28"/>
			<rect x="12.2" y="2.1" class="st0" width="0.1" height="28"/>
			<rect x="12.3" y="2.1" class="st0" width="0.1" height="28"/>
			<rect x="12.3" y="2.1" class="st0" width="0.1" height="28"/>
			<rect x="12.4" y="2.1" class="st0" width="0.1" height="28"/>
			<rect x="12.5" y="2.1" class="st0" width="0.1" height="28"/>
			<rect x="12.6" y="2.1" class="st0" width="0.1" height="28"/>
			<rect x="12.6" y="2.1" class="st0" width="0.1" height="28"/>
			<rect x="12.7" y="2.1" class="st0" width="0.1" height="28"/>
			<rect x="12.8" y="2.1" class="st0" width="0.1" height="28"/>
			<rect x="12.8" y="2.1" class="st0" width="0.1" height="28"/>
			<rect x="12.9" y="2.1" class="st0" width="0.1" height="28"/>
			<rect x="13" y="2.1" class="st0" width="0.1" height="28"/>
			<rect x="13.1" y="2.1" class="st0" width="0.1" height="28"/>
			<rect x="13.1" y="2.1" class="st0" width="0.1" height="28"/>
			<rect x="13.2" y="2.1" class="st0" width="0.1" height="28"/>
			<rect x="13.3" y="2.1" class="st0" width="0.1" height="28"/>
			<rect x="13.4" y="2.1" class="st0" width="0.1" height="28"/>
			<rect x="13.4" y="2.1" class="st0" width="0.1" height="28"/>
			<rect x="13.5" y="2.1" class="st0" width="0.1" height="28"/>
			<rect x="13.6" y="2.1" class="st0" width="0.1" height="28"/>
			<rect x="13.6" y="2.1" class="st0" width="0.1" height="28"/>
			<rect x="13.7" y="2.1" class="st0" width="0.1" height="28"/>
			<rect x="13.8" y="2.1" class="st0" width="0.1" height="28"/>
			<rect x="13.9" y="2.1" class="st0" width="0.1" height="28"/>
			<rect x="13.9" y="2.1" class="st0" width="0.1" height="28"/>
			<rect x="14" y="2.1" class="st0" width="0.1" height="28"/>
			<rect x="14.1" y="2.1" class="st0" width="0.1" height="28"/>
			<rect x="14.2" y="2.1" class="st0" width="0.1" height="28"/>
			<rect x="14.2" y="2.1" class="st0" width="0.1" height="28"/>
			<rect x="14.3" y="2.1" class="st0" width="0.1" height="28"/>
			<rect x="14.4" y="2.1" class="st0" width="0.1" height="28"/>
			<rect x="14.4" y="2.1" class="st0" width="0.1" height="28"/>
			<rect x="14.5" y="2.1" class="st0" width="0.1" height="28"/>
			<rect x="14.6" y="2.1" class="st0" width="0.1" height="28"/>
			<rect x="14.7" y="2.1" class="st0" width="0.1" height="28"/>
			<rect x="14.7" y="2.1" class="st0" width="0.1" height="28"/>
			<rect x="14.8" y="2.1" class="st0" width="0.1" height="28"/>
			<rect x="14.9" y="2.1" class="st0" width="0.1" height="28"/>
			<rect x="14.9" y="2.1" class="st0" width="0.1" height="28"/>
			<rect x="15" y="2.1" class="st0" width="0.1" height="28"/>
			<rect x="15.1" y="2.1" class="st0" width="0.1" height="28"/>
			<rect x="15.2" y="2.1" class="st0" width="0.1" height="28"/>
			<rect x="15.2" y="2.1" class="st0" width="0.1" height="28"/>
			<rect x="15.3" y="2.1" class="st0" width="0.1" height="28"/>
			<rect x="15.4" y="2.1" class="st0" width="0.1" height="28"/>
			<rect x="15.5" y="2.1" class="st0" width="0.1" height="28"/>
			<rect x="15.5" y="2.1" class="st0" width="0.1" height="28"/>
			<rect x="15.6" y="2.1" class="st0" width="0.1" height="28"/>
			<rect x="15.7" y="2.1" class="st0" width="0.1" height="28"/>
			<rect x="15.7" y="2.1" class="st0" width="0.1" height="28"/>
			<rect x="15.8" y="2.1" class="st0" width="0.1" height="28"/>
			<rect x="15.9" y="2.1" class="st0" width="0.1" height="28"/>
			<rect x="16" y="2.1" class="st0" width="0.1" height="28"/>
			<rect x="16" y="2.1" class="st0" width="0.1" height="28"/>
			<rect x="16.1" y="2.1" class="st0" width="0.1" height="28"/>
			<rect x="16.2" y="2.1" class="st0" width="0.1" height="28"/>
			<rect x="16.3" y="2.1" class="st0" width="0.1" height="28"/>
			<rect x="16.3" y="2.1" class="st0" width="0.1" height="28"/>
			<rect x="16.4" y="2.1" class="st0" width="0" height="28"/>
		</g>
	</g>
	<g>
		<path class="st1" d="M21.4,24.7c-0.3,0-0.5-0.1-0.7-0.2c-0.7-0.4-1-1.3-0.6-2c1.2-2,1.8-4.4,1.8-6.7c0-2.4-0.6-4.7-1.8-6.8
			c-0.4-0.7-0.2-1.6,0.6-2c0.7-0.4,1.6-0.2,2,0.6c1.4,2.5,2.2,5.4,2.2,8.2c0,2.9-0.7,5.7-2.2,8.2C22.4,24.4,21.9,24.7,21.4,24.7z"/>
	</g>
	<g>
		<path class="st1" d="M26.7,27.7c-0.3,0-0.5-0.1-0.7-0.2c-0.7-0.4-1-1.3-0.6-2c1.7-2.9,2.6-6.3,2.6-9.7c0-3.4-0.9-6.8-2.6-9.8
			c-0.4-0.7-0.2-1.6,0.6-2c0.7-0.4,1.6-0.2,2,0.6c2,3.4,3,7.3,3,11.3c0,3.9-1,7.8-2.9,11.2C27.7,27.4,27.2,27.7,26.7,27.7z"/>
	</g>
	<g>
		<path class="st1" d="M31.3,31.4c-0.3,0-0.5-0.1-0.7-0.2c-0.7-0.4-1-1.3-0.6-2c2.3-4.1,3.5-8.7,3.5-13.4c0-4.7-1.2-9.4-3.6-13.5
			c-0.4-0.7-0.2-1.6,0.6-2c0.7-0.4,1.6-0.2,2,0.6c2.6,4.5,4,9.7,4,15c0,5.2-1.4,10.4-3.9,14.9C32.3,31.1,31.8,31.4,31.3,31.4z"/>
	</g>
</g>
</svg>
