<!-- Generator: Adobe Illustrator 24.3.0, SVG Export Plug-In  -->
<svg version="1.1" xmlns="http://www.w3.org/2000/svg" xmlns:xlink="http://www.w3.org/1999/xlink" x="0px" y="0px" width="624px"
	 height="194.7px" viewBox="0 0 624 194.7" style="overflow:visible;enable-background:new 0 0 624 194.7;" xml:space="preserve">
<style type="text/css">
	.st0{fill:#609D61;}
	.st1{fill:none;stroke:#2C2D2B;stroke-width:13;}
	.st2{fill:#EA5E5E;}
	.st3{fill:#FFFFFF;}
</style>
<defs>
</defs>
<path class="st0" d="M613.9,194.7H29.5c-5.6,0-10.1-4.5-10.1-10.1V30.4c0-5.6,4.5-10.1,10.1-10.1h584.4c5.6,0,10.1,4.5,10.1,10.1
	v154.2C624,190.2,619.5,194.7,613.9,194.7z"/>
<path class="st1" d="M601,180.9H16.6c-5.6,0-10.1-4.5-10.1-10.1V16.6C6.5,11,11,6.5,16.6,6.5H601c5.6,0,10.1,4.5,10.1,10.1v154.2
	C611.1,176.4,606.6,180.9,601,180.9z"/>
<g>
	<path class="st2" d="M160.5,141.7c1.6,3.9,2.4,6.6,2.4,8.3c0,4.1-3.3,7.5-10,10.3c-3.4,1.5-6.2,2.2-8.3,2.2c-2.1,0-3.8-0.5-5.1-1.5
		c-1.3-1-2.3-2.1-3-3.1c-1.1-2-5.2-11.7-12.5-29.1l-5,0.3H98.8v18.1c0,2.5-0.1,4.3-0.2,5.5c-0.2,1.2-0.7,2.6-1.5,4.3
		c-1.5,2.9-5.7,4.3-12.5,4.3c-7.5,0-11.9-2-13.2-5.9c-0.6-1.8-1-4.6-1-8.4V58.1c0-2.5,0.1-4.3,0.2-5.5c0.2-1.2,0.7-2.6,1.5-4.3
		c1.5-2.9,5.7-4.3,12.5-4.3h34.7c9.4,0,18.6,3.4,27.5,10.3c4.3,3.3,7.8,7.8,10.6,13.5c2.8,5.7,4.2,12,4.2,18.9
		c0,12.1-4,22.1-12,29.9C151.9,122.2,155.5,130.6,160.5,141.7z M98.8,100.8h20.6c3.1,0,6.2-1.2,9.3-3.5c3.1-2.4,4.7-5.9,4.7-10.6
		c0-4.7-1.6-8.3-4.7-10.7c-3.1-2.4-6.3-3.6-9.6-3.6H98.8V100.8z"/>
	<path class="st2" d="M200.1,133.2h49.5c2.5,0,4.3,0.1,5.5,0.2c1.2,0.2,2.6,0.7,4.3,1.5c2.9,1.5,4.3,5.7,4.3,12.5
		c0,7.5-2,11.9-5.9,13.2c-1.8,0.6-4.6,1-8.3,1h-63.6c-7.5,0-11.9-2-13.2-6.1c-0.6-1.7-1-4.4-1-8.2V58.1c0-5.5,1-9.2,3.1-11.2
		c2-2,5.9-3,11.6-3h63.3c2.5,0,4.3,0.1,5.5,0.2c1.2,0.2,2.6,0.7,4.3,1.5c2.9,1.5,4.3,5.7,4.3,12.5c0,7.5-2,11.9-5.9,13.2
		c-1.8,0.6-4.6,1-8.3,1h-49.3v16.2h31.8c2.5,0,4.3,0.1,5.5,0.2c1.2,0.2,2.6,0.7,4.3,1.5c2.9,1.5,4.3,5.7,4.3,12.5
		c0,7.5-2,11.9-6.1,13.2c-1.8,0.6-4.6,1-8.4,1h-31.5V133.2z"/>
	<path class="st2" d="M281.8,43.8h89.3c3.4,0,5.9,0.4,7.5,1.2c1.6,0.8,2.7,2.1,3.2,3.8c0.5,1.7,0.8,4,0.8,6.7c0,2.8-0.3,5-0.8,6.7
		c-0.5,1.7-1.4,2.8-2.7,3.5c-1.9,1-4.7,1.4-8.2,1.4h-30.7v80.8c0,2.5-0.1,4.3-0.2,5.5c-0.2,1.2-0.6,2.5-1.4,4.1
		c-0.8,1.6-2.2,2.6-4.3,3.3c-2,0.6-4.7,1-8,1c-3.3,0-6-0.3-7.9-1c-2-0.6-3.4-1.7-4.2-3.3c-0.8-1.6-1.3-2.9-1.4-4.2
		c-0.2-1.2-0.2-3.1-0.2-5.5V67.1h-30.8c-3.4,0-5.9-0.4-7.5-1.2c-1.6-0.8-2.7-2.1-3.2-3.8c-0.5-1.7-0.8-4-0.8-6.7
		c0-2.8,0.3-5,0.8-6.7c0.5-1.7,1.4-2.8,2.7-3.5C275.6,44.3,278.3,43.8,281.8,43.8z"/>
	<path class="st2" d="M481.6,141.7c1.6,3.9,2.4,6.6,2.4,8.3c0,4.1-3.3,7.5-10,10.3c-3.4,1.5-6.2,2.2-8.3,2.2c-2.1,0-3.8-0.5-5.1-1.5
		c-1.3-1-2.3-2.1-3-3.1c-1.1-2-5.2-11.7-12.5-29.1l-5,0.3h-20.2v18.1c0,2.5-0.1,4.3-0.2,5.5c-0.2,1.2-0.7,2.6-1.5,4.3
		c-1.5,2.9-5.7,4.3-12.5,4.3c-7.5,0-11.9-2-13.2-5.9c-0.6-1.8-1-4.6-1-8.4V58.1c0-2.5,0.1-4.3,0.2-5.5c0.2-1.2,0.7-2.6,1.5-4.3
		c1.5-2.9,5.7-4.3,12.5-4.3h34.7c9.4,0,18.6,3.4,27.5,10.3c4.3,3.3,7.8,7.8,10.6,13.5c2.8,5.7,4.2,12,4.2,18.9
		c0,12.1-4,22.1-12,29.9C473,122.2,476.7,130.6,481.6,141.7z M419.9,100.8h20.6c3.1,0,6.2-1.2,9.3-3.5c3.1-2.4,4.7-5.9,4.7-10.6
		c0-4.7-1.6-8.3-4.7-10.7c-3.1-2.4-6.3-3.6-9.6-3.6h-20.2V100.8z"/>
	<path class="st2" d="M583.1,46.2c5.2,3.6,7.9,7.2,7.9,10.6c0,2-1.2,4.9-3.7,8.5l-34.7,51.9v30.7c0,2.5-0.1,4.3-0.2,5.5
		c-0.2,1.2-0.7,2.6-1.5,4.3c-0.9,1.6-2.3,2.7-4.3,3.4c-2,0.6-4.8,1-8.2,1c-3.4,0-6.2-0.3-8.2-1c-2-0.6-3.5-1.8-4.3-3.5
		c-0.9-1.7-1.4-3.1-1.5-4.3c-0.2-1.2-0.2-3.1-0.2-5.7v-30.3l-34.7-51.9c-2.5-3.6-3.7-6.5-3.7-8.5c0-3.4,2.4-6.7,7.1-9.9
		c4.7-3.2,8.1-4.7,10.1-4.7c2,0,3.6,0.4,4.8,1.3c1.8,1.2,3.7,3.4,5.8,6.6l24.9,39.8l24.9-39.8c2-3.2,3.8-5.3,5.3-6.3
		c1.5-1,3.2-1.5,5.2-1.5C575.7,42.2,578.8,43.5,583.1,46.2z"/>
</g>
<g>
	<path class="st3" d="M150,132.1c1.6,3.9,2.4,6.6,2.4,8.3c0,4.1-3.3,7.5-10,10.3c-3.4,1.5-6.2,2.2-8.3,2.2c-2.1,0-3.8-0.5-5.1-1.5
		c-1.3-1-2.3-2.1-3-3.1c-1.1-2-5.2-11.7-12.5-29.1l-5,0.3H88.3v18.1c0,2.5-0.1,4.3-0.2,5.5c-0.2,1.2-0.7,2.6-1.5,4.3
		c-1.5,2.9-5.7,4.3-12.5,4.3c-7.5,0-11.9-2-13.2-5.9c-0.6-1.8-1-4.6-1-8.4V48.5c0-2.5,0.1-4.3,0.2-5.5c0.2-1.2,0.7-2.6,1.5-4.3
		c1.5-2.9,5.7-4.3,12.5-4.3h34.7c9.4,0,18.6,3.4,27.5,10.3c4.3,3.3,7.8,7.8,10.6,13.5c2.8,5.7,4.2,12,4.2,18.9
		c0,12.1-4,22.1-12,29.9C141.4,112.6,145,121,150,132.1z M88.3,91.2h20.6c3.1,0,6.2-1.2,9.3-3.5c3.1-2.4,4.7-5.9,4.7-10.6
		c0-4.7-1.6-8.3-4.7-10.7c-3.1-2.4-6.3-3.6-9.6-3.6H88.3V91.2z"/>
	<path class="st3" d="M189.6,123.6h49.5c2.5,0,4.3,0.1,5.5,0.2c1.2,0.2,2.6,0.7,4.3,1.5c2.9,1.5,4.3,5.7,4.3,12.5
		c0,7.5-2,11.9-5.9,13.2c-1.8,0.6-4.6,1-8.3,1h-63.6c-7.5,0-11.9-2-13.2-6.1c-0.6-1.7-1-4.4-1-8.2V48.5c0-5.5,1-9.2,3.1-11.2
		c2-2,5.9-3,11.6-3h63.3c2.5,0,4.3,0.1,5.5,0.2c1.2,0.2,2.6,0.7,4.3,1.5c2.9,1.5,4.3,5.7,4.3,12.5c0,7.5-2,11.9-5.9,13.2
		c-1.8,0.6-4.6,1-8.3,1h-49.3V79h31.8c2.5,0,4.3,0.1,5.5,0.2c1.2,0.2,2.6,0.7,4.3,1.5c2.9,1.5,4.3,5.7,4.3,12.5
		c0,7.5-2,11.9-6.1,13.2c-1.8,0.6-4.6,1-8.4,1h-31.5V123.6z"/>
	<path class="st3" d="M271.4,34.2h89.3c3.4,0,5.9,0.4,7.5,1.2c1.6,0.8,2.7,2.1,3.2,3.8c0.5,1.7,0.8,4,0.8,6.7c0,2.8-0.3,5-0.8,6.7
		c-0.5,1.7-1.4,2.8-2.7,3.5c-1.9,1-4.7,1.4-8.2,1.4h-30.7v80.8c0,2.5-0.1,4.3-0.2,5.5c-0.2,1.2-0.6,2.5-1.4,4.1
		c-0.8,1.6-2.2,2.6-4.3,3.3c-2,0.6-4.7,1-8,1c-3.3,0-6-0.3-7.9-1c-2-0.6-3.4-1.7-4.2-3.3c-0.8-1.6-1.3-2.9-1.4-4.2
		c-0.2-1.2-0.2-3.1-0.2-5.5V57.5h-30.8c-3.4,0-5.9-0.4-7.5-1.2c-1.6-0.8-2.7-2.1-3.2-3.8c-0.5-1.7-0.8-4-0.8-6.7
		c0-2.8,0.3-5,0.8-6.7c0.5-1.7,1.4-2.8,2.7-3.5C265.1,34.7,267.8,34.2,271.4,34.2z"/>
	<path class="st3" d="M471.1,132.1c1.6,3.9,2.4,6.6,2.4,8.3c0,4.1-3.3,7.5-10,10.3c-3.4,1.5-6.2,2.2-8.3,2.2c-2.1,0-3.8-0.5-5.1-1.5
		c-1.3-1-2.3-2.1-3-3.1c-1.1-2-5.2-11.7-12.5-29.1l-5,0.3h-20.2v18.1c0,2.5-0.1,4.3-0.2,5.5c-0.2,1.2-0.7,2.6-1.5,4.3
		c-1.5,2.9-5.7,4.3-12.5,4.3c-7.5,0-11.9-2-13.2-5.9c-0.6-1.8-1-4.6-1-8.4V48.5c0-2.5,0.1-4.3,0.2-5.5c0.2-1.2,0.7-2.6,1.5-4.3
		c1.5-2.9,5.7-4.3,12.5-4.3H430c9.4,0,18.6,3.4,27.5,10.3c4.3,3.3,7.8,7.8,10.6,13.5c2.8,5.7,4.2,12,4.2,18.9c0,12.1-4,22.1-12,29.9
		C462.5,112.6,466.2,121,471.1,132.1z M409.5,91.2H430c3.1,0,6.2-1.2,9.3-3.5c3.1-2.4,4.7-5.9,4.7-10.6c0-4.7-1.6-8.3-4.7-10.7
		c-3.1-2.4-6.3-3.6-9.6-3.6h-20.2V91.2z"/>
	<path class="st3" d="M572.6,36.6c5.2,3.6,7.9,7.2,7.9,10.6c0,2-1.2,4.9-3.7,8.5l-34.7,51.9v30.7c0,2.5-0.1,4.3-0.2,5.5
		c-0.2,1.2-0.7,2.6-1.5,4.3c-0.9,1.6-2.3,2.7-4.3,3.4c-2,0.6-4.8,1-8.2,1c-3.4,0-6.2-0.3-8.2-1c-2-0.6-3.5-1.8-4.3-3.5
		c-0.9-1.7-1.4-3.1-1.5-4.3c-0.2-1.2-0.2-3.1-0.2-5.7v-30.3l-34.7-51.9c-2.5-3.6-3.7-6.5-3.7-8.5c0-3.4,2.4-6.7,7.1-9.9
		c4.7-3.2,8.1-4.7,10.1-4.7c2,0,3.6,0.4,4.8,1.3c1.8,1.2,3.7,3.4,5.8,6.6l24.9,39.8l24.9-39.8c2-3.2,3.8-5.3,5.3-6.3
		c1.5-1,3.2-1.5,5.2-1.5C565.2,32.6,568.3,33.9,572.6,36.6z"/>
</g>
</svg>
