<!-- Generator: Adobe Illustrator 24.3.0, SVG Export Plug-In  -->
<svg version="1.1" xmlns="http://www.w3.org/2000/svg" xmlns:xlink="http://www.w3.org/1999/xlink" x="0px" y="0px" width="546.8px"
	 height="26.6px" viewBox="0 0 546.8 26.6" style="overflow:visible;enable-background:new 0 0 546.8 26.6;" xml:space="preserve">
<style type="text/css">
	.st0{fill:#001749;}
</style>
<defs>
</defs>
<g>
	<path class="st0" d="M0,0.3h5.5l15.2,21.8L36,0.3h5.5v26.1h-3.5V3.5h-0.1L22,26.3h-2.5L3.6,3.5H3.5v22.9H0V0.3z"/>
	<path class="st0" d="M60.7,0.3h4.4l15.5,26.1h-4l-3.2-5.5H52.5l-3.2,5.5h-4L60.7,0.3z M62.9,3.2L54.2,18h17.5L62.9,3.2z"/>
	<path class="st0" d="M84.4,0.3h20.8c7.5,0,8.7,2.5,8.7,7.4v2.1c0,3.7-2.1,4.7-4.8,4.9v0.1c3.6,0.6,4.5,2.5,4.5,4.9v6.7h-3.3v-5.7
		c0-4.1-2-4.6-5.2-4.6H87.9v10.3h-3.5V0.3z M104.8,13.2c3.9,0,5.6-1,5.6-3.8V7c0-2.9-1.3-3.9-6.4-3.9H87.9v10H104.8z"/>
	<path class="st0" d="M120.1,0.3h3.5v11.1h4.4l16.3-11.1h5.8l0.1,0.1l-18.7,12.5L152,26.3l-0.1,0.1h-6.2l-17.9-12.1h-4.1v12.1h-3.5
		V0.3z"/>
	<path class="st0" d="M155.7,0.3h25.6v2.9h-22.1v8.3h21.2v2.9h-21.2v9.1h22.2v2.9h-25.7V0.3z"/>
	<path class="st0" d="M197.1,3.2h-13.2V0.3h29.9v2.9h-13.2v23.2h-3.5V3.2z"/>
	<path class="st0" d="M218,0.3h3.5v26.1H218V0.3z"/>
	<path class="st0" d="M228.3,0.3h5.3l23.9,22.9V0.3h3.5v26.1h-5.3L231.8,3.5v22.9h-3.5V0.3z"/>
	<path class="st0" d="M299.6,17c0,7.1-2.3,9.6-8.8,9.6h-14.5c-7.1,0-9.3-3.2-9.3-9.8V9.8c0-6.6,2.2-9.8,9.3-9.8h13.3
		c4.7,0,9.7,1.2,9.7,7.2v0.9H296c0-4.9-1.5-5.2-10.2-5.2h-9.1c-3.4,0-6.1,1-6.1,5.5v9.8c0,4.5,2.7,5.5,6.1,5.5h13.8
		c3.5,0,5.7-1.2,5.7-4.8v-2.6h-13.4v-2.9h16.9V17z"/>
	<path class="st0" d="M323,0.3h20.8c7.5,0,8.7,2.5,8.7,7.4v2.1c0,3.7-2.1,4.7-4.8,4.9v0.1c3.6,0.6,4.5,2.5,4.5,4.9v6.7h-3.3v-5.7
		c0-4.1-2-4.6-5.2-4.6h-17.2v10.3H323V0.3z M343.4,13.2c3.9,0,5.6-1,5.6-3.8V7c0-2.9-1.3-3.9-6.4-3.9h-16.1v10H343.4z"/>
	<path class="st0" d="M358.7,0.3h25.6v2.9h-22.1v8.3h21.2v2.9h-21.2v9.1h22.2v2.9h-25.7V0.3z"/>
	<path class="st0" d="M389.2,18.1h3.3V20c0,2.6,1.4,3.8,5.8,3.8h10.9c5.1,0,6.6-1.1,6.6-4.8c0-3.3-1.3-4.1-5.7-4.1h-6.7
		c-10.8,0-14.3-0.6-14.3-7.6c0-5.9,3.5-7.3,10.8-7.3h7.6c8.7,0,10.9,2.2,10.9,6.9v0.9h-3.3c-0.1-4.1-0.5-4.9-9.8-4.9h-3.7
		c-6.8,0-9.2,0.4-9.2,4.6c0,3.1,1,4.1,6.5,4.1h10.4c6.9,0,9.8,2,9.8,6.4v1.7c0,6.4-5.3,6.9-10.5,6.9h-9.8c-5.1,0-9.7-0.9-9.7-6.6
		V18.1z"/>
	<path class="st0" d="M425.4,0.3h3.5v19.5c0,2.5,0.9,4,5.7,4h12.2c4.8,0,5.7-1.5,5.7-4V0.3h3.5v19.5c0,5.3-2.7,6.8-9.3,6.8h-12
		c-6.6,0-9.3-1.5-9.3-6.8V0.3z"/>
	<path class="st0" d="M462.9,0.3h3.5v23.2h20.2v2.9h-23.8V0.3z"/>
	<path class="st0" d="M496.8,3.2h-13.2V0.3h29.9v2.9h-13.2v23.2h-3.5V3.2z"/>
	<path class="st0" d="M516.9,18.1h3.3V20c0,2.6,1.4,3.8,5.8,3.8h10.9c5.1,0,6.6-1.1,6.6-4.8c0-3.3-1.3-4.1-5.7-4.1h-6.7
		c-10.8,0-14.3-0.6-14.3-7.6c0-5.9,3.5-7.3,10.8-7.3h7.6c8.7,0,10.9,2.2,10.9,6.9v0.9h-3.3c-0.1-4.1-0.5-4.9-9.8-4.9h-3.7
		c-6.8,0-9.2,0.4-9.2,4.6c0,3.1,1,4.1,6.5,4.1h10.4c6.9,0,9.8,2,9.8,6.4v1.7c0,6.4-5.3,6.9-10.5,6.9h-9.8c-5.1,0-9.7-0.9-9.7-6.6
		V18.1z"/>
</g>
</svg>
