<!-- Generator: Adobe Illustrator 24.3.0, SVG Export Plug-In  -->
<svg version="1.1" xmlns="http://www.w3.org/2000/svg" xmlns:xlink="http://www.w3.org/1999/xlink" x="0px" y="0px" width="192.6px"
	 height="194.7px" viewBox="0 0 192.6 194.7" style="overflow:visible;enable-background:new 0 0 192.6 194.7;"
	 xml:space="preserve">
<style type="text/css">
	.st0{fill:#609D61;}
	.st1{fill:none;stroke:#2C2D2B;stroke-width:13;}
</style>
<defs>
</defs>
<path class="st0" d="M105.4,194.7L105.4,194.7c-48.2,0-87.2-39-87.2-87.2v0c0-48.2,39-87.2,87.2-87.2h0c48.2,0,87.2,39,87.2,87.2v0
	C192.6,155.7,153.5,194.7,105.4,194.7z"/>
<path class="st1" d="M93.7,180.9L93.7,180.9c-48.2,0-87.2-39-87.2-87.2v0c0-48.2,39-87.2,87.2-87.2h0c48.2,0,87.2,39,87.2,87.2v0
	C180.9,141.8,141.8,180.9,93.7,180.9z"/>
</svg>
