<!-- Generator: Adobe Illustrator 24.3.0, SVG Export Plug-In  -->
<svg version="1.1" xmlns="http://www.w3.org/2000/svg" xmlns:xlink="http://www.w3.org/1999/xlink" x="0px" y="0px" width="194.8px"
	 height="193.9px" viewBox="0 0 194.8 193.9" style="overflow:visible;enable-background:new 0 0 194.8 193.9;"
	 xml:space="preserve">
<style type="text/css">
	.st0{fill:#609D61;}
	.st1{fill:none;stroke:#2C2D2B;stroke-width:13;}
	.st2{fill:#EA5E5E;}
	.st3{fill:#FFFFFF;}
</style>
<defs>
</defs>
<path class="st0" d="M184.7,174.4H30.5c-5.6,0-10.1-4.5-10.1-10.1V10.1C20.4,4.5,24.9,0,30.5,0h154.2c5.6,0,10.1,4.5,10.1,10.1
	v154.2C194.8,169.9,190.3,174.4,184.7,174.4z"/>
<path class="st1" d="M170.8,187.4H16.6c-5.6,0-10.1-4.5-10.1-10.1V23.1C6.5,17.6,11,13,16.6,13h154.2c5.6,0,10.1,4.5,10.1,10.1
	v154.2C180.9,182.9,176.4,187.4,170.8,187.4z"/>
<g>
	<g>
		<path class="st2" d="M108.7,96.9l26.9,29.6c3,3.4,4.6,6.3,4.6,8.6c0,2.3-1.7,5-5.2,8.2c-3.4,3.1-6.3,4.7-8.7,4.7
			c-2.4,0-5.1-1.8-8.2-5.4l-25.5-29.2l-25.5,29.2c-3.2,3.6-6,5.4-8.2,5.4c-2.3,0-5.2-1.6-8.7-4.8c-3.5-3.2-5.3-5.9-5.3-8.1
			c0-2.2,1.6-5.1,4.7-8.6l26.9-29.6L49.6,67.3c-3.1-3.3-4.7-6.1-4.7-8.4c0-2.3,1.7-5.1,5.2-8.2c3.5-3.2,6.4-4.8,8.8-4.8
			c2.4,0,5.1,1.8,8.2,5.4l25.5,29.2l25.5-29.2c3.2-3.6,6-5.4,8.2-5.4c2.3,0,5.2,1.6,8.6,4.7c3.5,3.1,5.2,5.9,5.2,8.3
			s-1.5,5.2-4.6,8.4L108.7,96.9z"/>
	</g>
</g>
<g>
	<path class="st3" d="M118.1,100.6l26.9,29.6c3,3.4,4.6,6.3,4.6,8.6c0,2.3-1.7,5-5.2,8.2c-3.4,3.1-6.3,4.7-8.7,4.7
		c-2.4,0-5.1-1.8-8.2-5.4L102,117.1l-25.5,29.2c-3.2,3.6-6,5.4-8.2,5.4c-2.3,0-5.2-1.6-8.7-4.8c-3.5-3.2-5.3-5.9-5.3-8.1
		c0-2.2,1.6-5.1,4.7-8.6l26.9-29.6L58.9,71c-3.1-3.3-4.7-6.1-4.7-8.4c0-2.3,1.7-5.1,5.2-8.2c3.5-3.2,6.4-4.8,8.8-4.8
		c2.4,0,5.1,1.8,8.2,5.4L102,84.1l25.5-29.2c3.2-3.6,6-5.4,8.2-5.4c2.3,0,5.2,1.6,8.6,4.7c3.5,3.1,5.2,5.9,5.2,8.3S148,67.8,145,71
		L118.1,100.6z"/>
</g>
</svg>
