<!-- Generator: Adobe Illustrator 24.3.0, SVG Export Plug-In  -->
<svg version="1.1" xmlns="http://www.w3.org/2000/svg" xmlns:xlink="http://www.w3.org/1999/xlink" x="0px" y="0px" width="193.8px"
	 height="194.7px" viewBox="0 0 193.8 194.7" style="overflow:visible;enable-background:new 0 0 193.8 194.7;"
	 xml:space="preserve">
<style type="text/css">
	.st0{fill:#609D61;}
	.st1{fill:none;stroke:#2C2D2B;stroke-width:13;}
	.st2{fill:#EA5E5E;}
	.st3{fill:#FFFFFF;}
</style>
<defs>
</defs>
<path class="st0" d="M183.7,194.7H29.5c-5.6,0-10.1-4.5-10.1-10.1V30.4c0-5.6,4.5-10.1,10.1-10.1h154.2c5.6,0,10.1,4.5,10.1,10.1
	v154.2C193.8,190.2,189.3,194.7,183.7,194.7z"/>
<path class="st1" d="M170.8,180.9H16.6c-5.6,0-10.1-4.5-10.1-10.1V16.6C6.5,11,11,6.5,16.6,6.5h154.2c5.6,0,10.1,4.5,10.1,10.1
	v154.2C180.9,176.4,176.4,180.9,170.8,180.9z"/>
<g>
	<g>
		<path class="st2" d="M120.3,99.4l26.9,29.6c3,3.4,4.6,6.3,4.6,8.6c0,2.3-1.7,5-5.2,8.2c-3.4,3.1-6.3,4.7-8.7,4.7
			c-2.4,0-5.1-1.8-8.2-5.4l-25.5-29.2l-25.5,29.2c-3.2,3.6-6,5.4-8.2,5.4c-2.3,0-5.2-1.6-8.7-4.8c-3.5-3.2-5.3-5.9-5.3-8.1
			c0-2.2,1.6-5.1,4.7-8.6l26.9-29.6L61.2,69.8c-3.1-3.3-4.7-6.1-4.7-8.4c0-2.3,1.7-5.1,5.2-8.2c3.5-3.2,6.4-4.8,8.8-4.8
			c2.4,0,5.1,1.8,8.2,5.4L104.2,83l25.5-29.2c3.2-3.6,6-5.4,8.2-5.4c2.3,0,5.2,1.6,8.6,4.7c3.5,3.1,5.2,5.9,5.2,8.3
			s-1.5,5.2-4.6,8.4L120.3,99.4z"/>
	</g>
</g>
<g>
	<path class="st3" d="M111.8,98.1l26.9,29.6c3,3.4,4.6,6.3,4.6,8.6c0,2.3-1.7,5-5.2,8.2c-3.4,3.1-6.3,4.7-8.7,4.7
		c-2.4,0-5.1-1.8-8.2-5.4l-25.5-29.2l-25.5,29.2c-3.2,3.6-6,5.4-8.2,5.4c-2.3,0-5.2-1.6-8.7-4.8c-3.5-3.2-5.3-5.9-5.3-8.1
		c0-2.2,1.6-5.1,4.7-8.6l26.9-29.6L52.6,68.5c-3.1-3.3-4.7-6.1-4.7-8.4c0-2.3,1.7-5.1,5.2-8.2c3.5-3.2,6.4-4.8,8.8-4.8
		c2.4,0,5.1,1.8,8.2,5.4l25.5,29.2l25.5-29.2c3.2-3.6,6-5.4,8.2-5.4c2.3,0,5.2,1.6,8.6,4.7c3.5,3.1,5.2,5.9,5.2,8.3
		s-1.5,5.2-4.6,8.4L111.8,98.1z"/>
</g>
</svg>
