<!-- Generator: Adobe Illustrator 24.3.0, SVG Export Plug-In  -->
<svg version="1.1" xmlns="http://www.w3.org/2000/svg" xmlns:xlink="http://www.w3.org/1999/xlink" x="0px" y="0px" width="193.4px"
	 height="194.3px" viewBox="0 0 193.4 194.3" style="overflow:visible;enable-background:new 0 0 193.4 194.3;"
	 xml:space="preserve">
<style type="text/css">
	.st0{fill:#609D61;}
	.st1{fill:none;stroke:#2C2D2B;stroke-width:13;}
</style>
<defs>
</defs>
<path class="st0" d="M164.3,194.3H10.1c-5.6,0-10.1-4.5-10.1-10.1V30c0-5.6,4.5-10.1,10.1-10.1h154.2c5.6,0,10.1,4.5,10.1,10.1
	v154.2C174.4,189.7,169.9,194.3,164.3,194.3z"/>
<path class="st1" d="M176.8,180.9H22.6c-5.6,0-10.1-4.5-10.1-10.1V16.6c0-5.6,4.5-10.1,10.1-10.1h154.2c5.6,0,10.1,4.5,10.1,10.1
	v154.2C186.9,176.4,182.4,180.9,176.8,180.9z"/>
</svg>
