<!-- Generator: Adobe Illustrator 24.3.0, SVG Export Plug-In  -->
<svg version="1.1" xmlns="http://www.w3.org/2000/svg" xmlns:xlink="http://www.w3.org/1999/xlink" x="0px" y="0px" width="193.8px"
	 height="194.7px" viewBox="0 0 193.8 194.7" style="overflow:visible;enable-background:new 0 0 193.8 194.7;"
	 xml:space="preserve">
<style type="text/css">
	.st0{fill:#609D61;}
	.st1{fill:none;stroke:#2C2D2B;stroke-width:13;}
</style>
<defs>
</defs>
<path class="st0" d="M183.7,194.7H29.5c-5.6,0-10.1-4.5-10.1-10.1V30.4c0-5.6,4.5-10.1,10.1-10.1h154.2c5.6,0,10.1,4.5,10.1,10.1
	v154.2C193.8,190.2,189.3,194.7,183.7,194.7z"/>
<path class="st1" d="M170.8,180.9H16.6c-5.6,0-10.1-4.5-10.1-10.1V16.6C6.5,11,11,6.5,16.6,6.5h154.2c5.6,0,10.1,4.5,10.1,10.1
	v154.2C180.9,176.4,176.4,180.9,170.8,180.9z"/>
</svg>
