<!-- Generator: Adobe Illustrator 24.3.0, SVG Export Plug-In  -->
<svg version="1.1" xmlns="http://www.w3.org/2000/svg" xmlns:xlink="http://www.w3.org/1999/xlink" x="0px" y="0px" width="194.8px"
	 height="193.9px" viewBox="0 0 194.8 193.9" style="overflow:visible;enable-background:new 0 0 194.8 193.9;"
	 xml:space="preserve">
<style type="text/css">
	.st0{fill:#609D61;}
	.st1{fill:none;stroke:#2C2D2B;stroke-width:13;}
</style>
<defs>
</defs>
<path class="st0" d="M184.7,174.4H30.5c-5.6,0-10.1-4.5-10.1-10.1V10.1C20.4,4.5,24.9,0,30.5,0h154.2c5.6,0,10.1,4.5,10.1,10.1
	v154.2C194.8,169.9,190.3,174.4,184.7,174.4z"/>
<path class="st1" d="M170.8,187.4H16.6c-5.6,0-10.1-4.5-10.1-10.1V23.1C6.5,17.6,11,13,16.6,13h154.2c5.6,0,10.1,4.5,10.1,10.1
	v154.2C180.9,182.9,176.4,187.4,170.8,187.4z"/>
</svg>
